<svg width="320" height="257" viewBox="0 0 320 257" fill="none" xmlns="http://www.w3.org/2000/svg">
<g clip-path="url(#clip0_607_61)">
<path d="M182.299 227.362C180.086 224.276 177.091 222.018 173.325 221.172C170.041 220.435 166.664 220.561 163.326 220.587L121.12 220.911C117.505 220.939 114.039 224.058 114.207 227.797C114.374 231.503 117.245 234.712 121.12 234.682C133.483 234.587 145.847 234.492 158.211 234.397C161.125 234.375 164.042 234.323 166.957 234.332C167.611 234.334 168.263 234.369 168.917 234.376C169.076 234.378 169.19 234.376 169.271 234.373C169.291 234.379 169.308 234.385 169.335 234.392C169.676 234.485 170.026 234.55 170.369 234.638C170.249 234.642 170.591 234.855 170.764 234.927C170.787 234.973 170.838 235.056 170.922 235.183C171.039 235.403 171.387 236.069 171.401 236.048C171.924 237.364 172.355 238.715 172.692 240.09C173.495 243.123 173.672 243.757 173.787 246.603C173.934 250.197 176.862 253.66 180.7 253.488C184.32 253.327 187.769 250.458 187.613 246.603C187.348 240.107 186.204 232.81 182.299 227.362Z" fill="#E6E6E6"/>
<path d="M123.601 242.901C122.808 238.116 122.03 233.327 121.222 228.545C120.402 223.693 118.727 219.25 114.937 216.065C113.924 215.215 112.874 214.42 111.819 213.628C111.449 213.35 111.078 213.071 110.712 212.787C110.69 212.77 110.676 212.759 110.657 212.744C110.617 212.71 110.568 212.669 110.503 212.614C108.924 211.282 107.397 209.891 105.943 208.412C104.652 207.099 103.417 205.73 102.238 204.304C101.944 203.949 101.653 203.589 101.366 203.227C101.317 203.165 101.051 202.822 100.876 202.599C100.713 202.376 100.415 201.972 100.365 201.902C100.03 201.43 99.7011 200.953 99.3778 200.472C97.1761 197.186 95.2696 193.713 93.6805 190.094C93.5229 189.735 93.3691 189.374 93.219 189.01C93.1787 188.9 93.1265 188.757 93.0574 188.568C92.7371 187.691 92.4175 186.814 92.1247 185.927C91.5026 184.042 90.9678 182.128 90.5202 180.187C90.2989 179.229 90.0997 178.266 89.9226 177.298C89.8312 176.8 89.7458 176.301 89.6662 175.801C89.6532 175.718 89.5755 175.179 89.5298 174.874C89.496 174.568 89.4331 174.025 89.4247 173.942C89.3741 173.438 89.3291 172.933 89.2899 172.428C89.2015 171.292 89.1417 170.154 89.1106 169.014C89.0575 166.988 89.0939 164.962 89.2199 162.937C89.2916 161.798 89.3937 160.663 89.5194 159.53C89.527 159.461 89.5329 159.405 89.5384 159.355C89.546 159.305 89.5549 159.247 89.5654 159.176C89.6585 158.549 89.7563 157.924 89.8658 157.301C90.2805 154.934 90.8197 152.591 91.4813 150.28C91.7946 149.187 92.1349 148.104 92.5021 147.029C92.6659 146.551 92.8348 146.076 93.0089 145.603C92.9975 145.633 93.5196 144.305 93.5266 144.26C95.5981 139.384 98.9865 134.94 98.9912 129.401C98.9943 125.651 95.8095 122.059 92.0786 122.233C90.2184 122.302 88.458 123.089 87.1685 124.426C85.879 125.763 85.161 127.547 85.1659 129.401C85.1659 129.485 85.1655 129.557 85.1653 129.627C85.1305 129.744 85.1014 129.841 85.0752 129.927C84.6712 130.802 84.1763 131.633 83.7329 132.486C82.5186 134.82 81.4822 137.23 80.4977 139.676C78.8859 143.659 77.6522 147.784 76.8127 151.997C74.988 161.226 74.8463 170.708 76.3946 179.987C79.0748 196.26 87.9134 211.838 100.201 222.309C101.268 223.217 102.36 224.095 103.463 224.956C103.919 225.312 104.379 225.661 104.841 226.008C105.06 226.172 105.965 226.884 105.567 226.539C106.424 227.267 106.784 227.633 107.004 228.17C107.036 228.294 107.079 228.461 107.138 228.691C107.293 229.296 107.441 229.899 107.563 230.512C108.632 235.871 109.376 241.319 110.269 246.713C110.883 250.418 115.463 252.83 118.773 251.72C122.625 250.427 124.259 246.872 123.601 242.901Z" fill="#E6E6E6"/>
<path d="M182.997 256.799C180.094 256.806 177.307 255.666 175.246 253.629C173.186 251.592 172.021 248.824 172.006 245.932V238.078C163.751 238.998 135.481 238.785 127.377 237.488V245.618C127.355 248.508 126.188 251.271 124.129 253.307C122.07 255.342 119.287 256.485 116.386 256.485C113.485 256.485 110.702 255.342 108.643 253.307C106.584 251.271 105.416 248.508 105.395 245.618V229.655C94.4191 223.582 85.2694 214.701 78.8898 203.929C72.5102 193.157 69.1319 180.884 69.1035 168.377C69.1035 146.932 78.8602 126.927 95.8721 113.492C106.933 104.727 120.372 99.4552 134.463 98.3546C136.375 98.2052 138.3 98.1296 140.182 98.1296C146.815 98.1296 176.741 99.1502 184.249 101.302L201.37 84.3795C201.622 84.1274 201.943 83.9556 202.293 83.8861C202.643 83.8166 203.006 83.8525 203.336 83.9893C203.668 84.1209 203.952 84.3494 204.152 84.6448C204.351 84.9403 204.456 85.2888 204.452 85.6448V88.3354L207.786 85.0465C208.037 84.7941 208.359 84.6221 208.708 84.5524C209.058 84.4828 209.421 84.5187 209.75 84.6557C210.083 84.7872 210.367 85.0157 210.567 85.3113C210.766 85.6068 210.871 85.9556 210.868 86.3117V116.379C219.459 124.093 226.007 133.8 229.931 144.638C233.856 155.477 235.036 167.112 233.366 178.513C231.697 189.914 227.23 200.729 220.361 209.999C213.492 219.269 204.434 226.708 193.988 231.657V245.932C193.974 248.824 192.809 251.592 190.749 253.629C188.688 255.666 185.901 256.806 182.997 256.799ZM172.87 237.101V245.932C172.892 248.593 173.969 251.138 175.866 253.012C177.762 254.886 180.326 255.938 182.997 255.938C185.669 255.938 188.232 254.886 190.129 253.012C192.026 251.138 193.103 248.593 193.124 245.932V231.114L193.371 230.997C205.091 225.457 215.041 216.79 222.115 205.958C231.129 192.136 234.878 175.555 232.683 159.218C230.488 142.881 222.494 127.866 210.148 116.891L210.004 116.763V86.3117C210.007 86.1267 209.953 85.9452 209.85 85.7916C209.746 85.6381 209.598 85.5199 209.425 85.4529C209.252 85.3796 209.062 85.3598 208.878 85.3961C208.695 85.4325 208.527 85.5232 208.396 85.6565L203.588 90.3993V85.6447C203.591 85.4597 203.538 85.2782 203.434 85.1247C203.33 84.9711 203.182 84.8529 203.009 84.7859C202.836 84.7127 202.645 84.6931 202.462 84.7297C202.278 84.7663 202.109 84.8574 201.978 84.991L184.491 102.276L184.242 102.198C177.262 100.022 146.866 98.9903 140.182 98.9903C138.322 98.9903 136.42 99.0651 134.531 99.2128C120.611 100.3 107.335 105.507 96.409 114.166C79.605 127.438 69.9675 147.197 69.9675 168.377C69.9962 180.773 73.3565 192.936 79.6992 203.601C86.0419 214.266 95.1357 223.045 106.036 229.026L106.259 229.148V245.618C106.281 248.279 107.358 250.823 109.255 252.697C111.151 254.571 113.715 255.622 116.386 255.622C119.057 255.622 121.62 254.571 123.517 252.697C125.414 250.823 126.491 248.279 126.513 245.618V236.458L127.025 236.553C134.307 237.918 164.971 238.133 172.382 237.165L172.87 237.101Z" fill="#3F3D56"/>
<path d="M124.426 51.2629L76.5816 65.5853C75.0598 66.0427 73.7826 67.0831 73.0304 68.4779C72.2783 69.8728 72.1127 71.508 72.5701 73.0243C73.0276 74.5407 74.0706 75.8142 75.47 76.565C76.8695 77.3158 78.5109 77.4825 80.0337 77.0286L121.902 64.4922L122.779 64.2297C122.957 59.7275 124.183 55.3281 126.361 51.3791C126.088 51.2566 125.796 51.181 125.497 51.1553C125.136 51.1205 124.772 51.1571 124.426 51.2629Z" fill="#356BFF"/>
<path d="M79.2065 80.0832C78.5714 80.0816 77.9528 79.8813 77.4382 79.5106C76.9236 79.1398 76.539 78.6173 76.3387 78.0169L73.3469 69.0241C73.222 68.6486 73.1725 68.2522 73.2013 67.8576C73.2302 67.463 73.3368 67.078 73.5151 66.7244C73.6933 66.3709 73.9397 66.0558 74.2403 65.7971C74.5408 65.5384 74.8895 65.3413 75.2666 65.2169L114.207 52.362C114.584 52.2375 114.982 52.1882 115.378 52.2169C115.774 52.2456 116.16 52.3518 116.515 52.5293C116.87 52.7068 117.186 52.9522 117.446 53.2515C117.706 53.5508 117.904 53.8981 118.029 54.2736L121.021 63.2664C121.27 64.006 121.22 64.8132 120.881 65.5168C120.543 66.2204 119.943 66.7653 119.209 67.036C119.173 67.0495 119.137 67.0622 119.1 67.0741L80.1608 79.9285C79.8531 80.0307 79.5309 80.0829 79.2065 80.0832Z" fill="#2F2E41"/>
<path d="M152.132 35.293C144.273 35.296 136.723 38.3452 131.081 43.7951C125.439 49.245 122.147 56.668 121.903 64.4929C121.894 64.7984 121.89 65.1083 121.89 65.4181C121.89 71.3763 123.663 77.2007 126.986 82.1548C130.31 87.1088 135.033 90.97 140.559 93.2501C146.085 95.5303 152.166 96.1268 158.032 94.9645C163.899 93.8021 169.288 90.9329 173.517 86.7198C177.747 82.5068 180.627 77.139 181.794 71.2953C182.961 65.4516 182.362 59.3944 180.073 53.8897C177.784 48.3851 173.908 43.6802 168.934 40.37C163.961 37.0598 158.114 35.293 152.132 35.293ZM152.132 94.6826C144.343 94.6745 136.875 91.5887 131.367 86.1023C125.86 80.6159 122.762 73.1771 122.754 65.4181C122.754 65.0179 122.762 64.622 122.78 64.2303C123.014 58.4979 124.934 52.9604 128.302 48.3064C131.67 43.6524 136.337 40.0872 141.723 38.0542C147.109 36.0213 152.976 35.6101 158.595 36.872C164.213 38.1338 169.335 41.013 173.324 45.1514C177.313 49.2899 179.993 54.505 181.03 60.1484C182.068 65.7918 181.417 71.6144 179.159 76.8923C176.901 82.1702 173.135 86.6704 168.33 89.8334C163.524 92.9965 157.892 94.6827 152.132 94.6826Z" fill="#3F3D56"/>
<path d="M177.623 65.4185C177.623 72.1526 174.938 78.611 170.157 83.3728C165.377 88.1345 158.893 90.8097 152.133 90.8097C145.372 90.8097 138.889 88.1345 134.108 83.3728C129.328 78.611 126.643 72.1526 126.643 65.4185C126.643 64.6137 126.681 63.8218 126.755 63.0386C127.369 56.5394 130.473 50.5256 135.421 46.2458C140.369 41.966 146.783 39.7491 153.329 40.0553C159.875 40.3616 166.051 43.1675 170.575 47.8905C175.099 52.6134 177.623 58.8906 177.623 65.4185Z" fill="#E6E6E6"/>
<path d="M159.723 67.1042C159.105 66.295 158.293 65.6541 157.36 65.2408C156.21 64.7579 155.022 64.3693 153.809 64.0788V57.1672C155.674 57.4474 157.424 58.242 158.859 59.461L160.268 56.4701C159.458 55.7512 158.528 55.1788 157.52 54.7787C156.403 54.3282 155.23 54.0286 154.033 53.8879V50.3848H150.772V53.9223C149.512 54.0633 148.297 54.4696 147.207 55.1144C146.223 55.6948 145.394 56.504 144.792 57.4728C144.217 58.4183 143.92 59.505 143.932 60.6101C143.876 61.8077 144.225 62.9896 144.922 63.9669C145.563 64.8131 146.411 65.4825 147.384 65.9121C148.553 66.4092 149.761 66.808 150.996 67.1042V73.7275C148.795 73.5621 146.697 72.7285 144.986 71.339L143.578 74.3343C144.535 75.1221 145.623 75.7368 146.792 76.1504C148.074 76.6073 149.413 76.8854 150.772 76.9767V80.4497H154.033V76.9121C155.845 76.7149 157.544 75.9389 158.876 74.7001C159.463 74.1396 159.927 73.4638 160.238 72.7156C160.548 71.9674 160.7 71.163 160.682 70.3535C160.737 69.194 160.399 68.0499 159.723 67.1042ZM150.996 63.3472C150.202 63.1072 149.463 62.7122 148.823 62.1852C148.569 61.9605 148.369 61.6827 148.236 61.3716C148.103 61.0606 148.041 60.7241 148.054 60.3863C148.03 59.6198 148.313 58.8753 148.84 58.3163C149.425 57.7298 150.178 57.3401 150.996 57.2017V63.3472ZM155.857 72.5053C155.305 73.0683 154.588 73.4408 153.809 73.5682V67.8703C154.553 68.0693 155.25 68.4162 155.857 68.8902C156.087 69.0859 156.269 69.3306 156.391 69.6063C156.513 69.882 156.571 70.1815 156.561 70.4826C156.591 71.2212 156.339 71.9437 155.857 72.5053Z" fill="#356BFF"/>
<path d="M80.595 116.53C79.9271 116.529 79.2782 116.308 78.749 115.902C78.2198 115.496 77.8398 114.928 77.6679 114.285L76.0391 108.144C75.8352 107.372 75.947 106.551 76.3499 105.861C76.7529 105.171 77.4141 104.669 78.1885 104.464L129.575 90.9377C130.351 90.7361 131.175 90.8487 131.867 91.2508C132.56 91.6528 133.064 92.3117 133.27 93.0832L134.65 98.2861L134.391 98.3061C121.212 99.3269 108.602 104.087 98.0534 112.022L97.9785 112.058L81.3622 116.431C81.1118 116.496 80.8539 116.53 80.595 116.53Z" fill="#2F2E41"/>
<path d="M72.0846 146.865C66.0567 145.977 60.2916 143.806 55.1824 140.499C52.6511 138.861 50.3079 136.952 48.1946 134.806C46.1088 132.686 44.1134 130.278 43.0802 127.456C42.0862 124.844 42.1374 121.953 43.2233 119.378C44.2944 116.819 46.3404 114.788 48.9127 113.729C51.5005 112.701 54.627 112.591 57.1454 113.717C58.3455 114.241 59.384 115.074 60.1543 116.13C60.5123 116.616 60.7774 117.165 60.9364 117.747C61.0839 118.275 61.0973 118.831 60.9754 119.365C60.8277 119.898 60.5673 120.394 60.2116 120.818C59.8559 121.243 59.4131 121.587 58.9129 121.828C57.8122 122.39 56.6195 122.753 55.3909 122.898C54.1552 123.066 52.3802 123.218 51.3868 122.23C51.1823 122.035 51.0214 121.799 50.9147 121.537C50.8401 121.337 50.8145 121.122 50.8402 120.91C50.8258 121.003 50.9002 120.706 50.8959 120.718C50.8802 120.762 50.8122 120.869 50.9089 120.705C50.9391 120.65 50.9728 120.598 51.0096 120.548C50.9768 120.591 50.9047 120.661 51.0334 120.54C51.1398 120.424 51.2766 120.34 51.4284 120.297C51.4882 120.28 51.5489 120.266 51.6089 120.25C51.7613 120.208 51.457 120.252 51.6129 120.247C51.6731 120.245 51.7339 120.247 51.7939 120.244C51.9469 120.237 51.643 120.202 51.7896 120.239C51.8465 120.253 51.9029 120.267 51.959 120.285C52.0808 120.323 51.8727 120.196 51.9552 120.291C52.052 120.403 51.8536 120.182 51.9636 120.291C52.0184 120.344 52.07 120.401 52.1181 120.46C52.3089 120.648 52.5662 120.753 52.8343 120.753C53.1023 120.753 53.3596 120.648 53.5504 120.46C53.7346 120.268 53.8375 120.013 53.8375 119.747C53.8375 119.481 53.7346 119.226 53.5504 119.034C52.5517 117.8 50.5792 118.105 49.569 119.147C48.2807 120.477 48.7909 122.583 50.044 123.743C51.4627 125.056 53.472 125.147 55.2969 124.927C56.8392 124.78 58.3421 124.356 59.7336 123.678C61.1162 123.001 62.1975 121.837 62.7682 120.412C63.0259 119.652 63.1184 118.845 63.0398 118.046C62.9611 117.247 62.7129 116.474 62.3118 115.778C60.7006 112.76 57.3643 111.213 54.0666 110.945C52.3688 110.813 50.6615 111.017 49.0434 111.546C47.4254 112.075 45.9287 112.919 44.6401 114.028C42.1563 116.255 40.6268 119.348 40.368 122.667C40.0802 126.109 41.4205 129.45 43.3747 132.228C45.4204 135.049 47.8617 137.564 50.624 139.696C56.0242 143.99 62.3587 146.966 69.1204 148.385C69.9247 148.551 70.7333 148.692 71.5462 148.81C71.8049 148.872 72.0777 148.834 72.3091 148.703C72.5406 148.573 72.7132 148.359 72.792 148.105C72.8614 147.848 72.8261 147.573 72.6937 147.341C72.5614 147.108 72.3426 146.937 72.0846 146.865L72.0846 146.865Z" fill="#3F3D56"/>
<path d="M168.596 103.02C159.764 102.895 150.96 103.119 142.184 103.689C139.184 103.885 136.589 104.941 136.589 106.716C136.589 108.2 139.164 109.938 142.184 109.742C150.956 109.171 159.76 108.948 168.596 109.072C175.8 109.173 175.795 103.121 168.596 103.02Z" fill="#CCCCCC"/>
<path d="M155.542 108.772C154.587 108.772 132.166 108.737 132.166 105.652C132.166 102.567 154.587 102.531 155.542 102.531C156.496 102.531 178.917 102.567 178.917 105.652C178.917 108.737 156.496 108.772 155.542 108.772ZM133.043 105.652C133.656 106.587 141.898 107.911 155.542 107.911C169.186 107.911 177.427 106.587 178.041 105.652C177.427 104.716 169.186 103.392 155.542 103.392C141.898 103.392 133.656 104.716 133.043 105.652V105.652Z" fill="#3F3D56"/>
<path d="M226.679 189.875C231.643 189.737 237.82 189.566 242.579 186.103C243.996 185.029 245.16 183.66 245.99 182.092C246.82 180.523 247.295 178.792 247.383 177.021C247.48 174.286 246.488 171.899 244.59 170.301C242.105 168.209 238.475 167.718 234.564 168.863L238.616 139.363L235.641 138.957L230.877 173.638L233.361 172.503C236.242 171.187 240.195 170.517 242.652 172.585C243.255 173.126 243.725 173.798 244.025 174.549C244.325 175.3 244.448 176.11 244.383 176.916C244.31 178.234 243.953 179.521 243.336 180.69C242.719 181.858 241.856 182.88 240.807 183.687C237.104 186.382 232.18 186.729 226.596 186.885L226.679 189.875Z" fill="#3F3D56"/>
<path d="M218.453 141.906H202.281V144.897H218.453V141.906Z" fill="#3F3D56"/>
<path d="M87.9132 130.287C87.1933 130.284 86.4978 130.027 85.9512 129.56C85.4047 129.093 85.0428 128.448 84.9304 127.74L83.9432 121.465C83.8199 120.675 84.016 119.87 84.4884 119.224C84.9608 118.579 85.6709 118.146 86.463 118.022L138.969 109.827C139.761 109.704 140.57 109.899 141.218 110.37C141.866 110.84 142.3 111.548 142.425 112.337L143.412 118.612C143.535 119.401 143.339 120.207 142.867 120.853C142.395 121.498 141.685 121.93 140.893 122.055L88.3863 130.25C88.2298 130.274 88.0716 130.287 87.9132 130.287Z" fill="#2F2E41"/>
<path d="M66.1834 56.7443C78.3524 56.7443 88.2173 46.9177 88.2173 34.796C88.2173 22.6743 78.3524 12.8477 66.1834 12.8477C54.0143 12.8477 44.1494 22.6743 44.1494 34.796C44.1494 46.9177 54.0143 56.7443 66.1834 56.7443Z" fill="#356BFF"/>
<path d="M78.6584 40.4754C79.3626 40.2301 80.006 39.8374 80.5451 39.3237C80.9018 38.9575 81.1738 38.518 81.3421 38.0361C81.5104 37.5541 81.5708 37.0414 81.5192 36.5337C81.4893 36.1719 81.3757 35.8218 81.1874 35.511C80.9992 35.2001 80.7413 34.9368 80.4339 34.7416C79.6365 34.2532 78.5828 34.2716 77.519 34.7629L77.3962 26.1953L76.5323 26.2076L76.6766 36.2796L77.3343 35.8499C78.0969 35.3525 79.1928 34.9918 79.9812 35.4748C80.1762 35.6027 80.3389 35.7737 80.4568 35.9744C80.5747 36.1752 80.6445 36.4003 80.6607 36.6323C80.6971 37.0105 80.6512 37.3921 80.5263 37.751C80.4013 38.11 80.2002 38.4379 79.9365 38.7125C78.9999 39.6383 77.6135 39.9485 76.0312 40.2322L76.1844 41.0792C77.0255 40.9519 77.8535 40.7499 78.6584 40.4754Z" fill="#2F2E41"/>
<path d="M86.2937 25.5949L81.6924 26.2891L81.8218 27.14L86.4231 26.4458L86.2937 25.5949Z" fill="#2F2E41"/>
<path d="M71.7702 27.7844L67.1689 28.4785L67.2983 29.3294L71.8996 28.6353L71.7702 27.7844Z" fill="#2F2E41"/>
<path d="M80.7446 129.903C79.9522 129.902 79.179 129.66 78.5281 129.209C77.8771 128.759 77.3792 128.122 77.1006 127.383L61.9088 86.8569C60.052 81.8866 60.2502 76.3856 62.4601 71.5607C64.67 66.7358 68.711 62.9812 73.6966 61.1205L86.0493 56.5259C86.5269 56.347 87.0354 56.264 87.5454 56.2816C88.0554 56.2993 88.5568 56.4172 89.0209 56.6286C89.4838 56.8346 89.9009 57.1305 90.2477 57.4989C90.5945 57.8673 90.8641 58.3009 91.0408 58.7743L119.182 111.702C119.365 112.179 119.451 112.687 119.436 113.198C119.42 113.709 119.304 114.211 119.093 114.677C118.882 115.142 118.58 115.561 118.206 115.91C117.831 116.259 117.391 116.531 116.911 116.71L82.1035 129.657C81.6689 129.819 81.2087 129.903 80.7446 129.903Z" fill="#2F2E41"/>
<path d="M82.3018 57.9187L110.224 95.1129L91.3302 58.3091C91.1742 57.8797 90.9347 57.4851 90.6256 57.1479C90.3164 56.8107 89.9436 56.5374 89.5284 56.3437C89.1132 56.1501 88.6637 56.0398 88.2057 56.0192C87.7477 55.9986 87.2901 56.068 86.8591 56.2236L82.3018 57.9187Z" fill="#E6E6E6"/>
<path d="M126.513 86.1661L76.6579 82.9671C75.8721 82.9167 75.1039 82.7126 74.3972 82.3665C73.6906 82.0203 73.0593 81.539 72.5394 80.9498C72.0195 80.3606 71.6212 79.6752 71.3673 78.9328C71.1133 78.1903 71.0087 77.4052 71.0593 76.6224C71.1099 75.8396 71.3148 75.0744 71.6623 74.3705C72.0098 73.6666 72.493 73.0378 73.0845 72.52C73.676 72.0021 74.364 71.6053 75.1094 71.3524C75.8548 71.0994 76.6429 70.9951 77.4288 71.0456L127.284 74.2442C127.652 74.2678 128.012 74.3634 128.343 74.5255C128.674 74.6876 128.969 74.913 129.213 75.1889C129.456 75.4648 129.643 75.7858 129.762 76.1335C129.881 76.4812 129.93 76.8489 129.906 77.2155L129.496 83.5543C129.448 84.2947 129.107 84.9858 128.548 85.4755C127.988 85.9653 127.256 86.2137 126.513 86.1661Z" fill="#356BFF"/>
<path d="M113.191 88.2168C113.125 88.2168 113.059 88.2147 112.993 88.2105H112.993L72.0545 85.5838C71.6582 85.5584 71.2708 85.4555 70.9144 85.281C70.558 85.1064 70.2395 84.8637 69.9773 84.5665C69.7151 84.2694 69.5143 83.9237 69.3862 83.5493C69.2581 83.1748 69.2053 82.7789 69.2309 82.3841L69.9309 71.557C69.9565 71.1622 70.0598 70.7763 70.2351 70.4213C70.4104 70.0663 70.6541 69.7491 70.9524 69.488C71.2508 69.2268 71.5978 69.0267 71.9738 68.8992C72.3497 68.7716 72.7472 68.7191 73.1435 68.7445L114.082 71.371C114.882 71.4232 115.628 71.7894 116.158 72.3893C116.687 72.9892 116.956 73.7737 116.905 74.5708L116.205 85.398C116.167 85.9782 115.961 86.5349 115.613 87.0014C115.264 87.4679 114.788 87.8243 114.241 88.0279C113.905 88.1531 113.55 88.2171 113.191 88.2168Z" fill="#2F2E41"/>
<path d="M65.9308 20.2013C68.8295 17.718 72.81 19.9395 76.1342 19.5506C79.3144 19.1785 81.8257 16.3369 82.4672 13.3179C83.2157 9.79589 81.3804 6.26729 78.6754 4.07135C75.7127 1.66625 71.7834 0.975803 68.06 1.42076C63.7925 1.93074 59.8897 3.91226 56.3876 6.30902C53.0074 8.55081 49.8988 11.1747 47.124 14.1283C44.6393 16.8618 42.5342 20.1201 41.8619 23.7984C41.251 27.1412 41.7175 30.8455 43.7013 33.6773C44.7533 35.1288 46.163 36.2857 47.7945 37.0364C49.4957 37.8685 51.3103 38.4633 52.9583 39.4041C55.4502 40.8266 57.8721 43.7761 57.0915 46.8454C56.9242 47.5159 56.5939 48.1352 56.1298 48.6486C55.5722 49.2652 54.5664 48.4504 55.1255 47.8322C56.1074 46.7464 56.0688 45.2983 55.5454 44.0019C54.9232 42.5411 53.8213 41.3341 52.4203 40.5787C50.6952 39.5962 48.7906 38.9898 47.0224 38.0949C45.33 37.2774 43.861 36.0647 42.7403 34.56C40.6241 31.6305 39.9911 27.818 40.471 24.2912C40.9904 20.4746 42.959 17.0064 45.4268 14.1C48.1124 10.9371 51.4113 8.25984 54.7815 5.85464C58.3977 3.27384 62.3929 1.09195 66.8138 0.302792C70.646 -0.381281 74.7999 0.0398775 78.151 2.12017C81.2791 4.06199 83.6778 7.4023 83.9164 11.1348C84.002 12.833 83.6318 14.5234 82.8439 16.0318C82.056 17.5402 80.8788 18.8123 79.4334 19.717C77.9504 20.6011 76.2261 20.999 74.5039 20.8546C72.6627 20.7372 70.8197 20.1756 68.9668 20.3315C68.1283 20.3822 67.3293 20.7038 66.6908 21.2475C66.0575 21.7901 65.3027 20.7394 65.9308 20.2013V20.2013Z" fill="#2F2E41"/>
<path d="M319.486 256.999H0.514886C0.378712 256.999 0.248252 256.945 0.152101 256.849C0.0559503 256.753 0.00195312 256.623 0.00195312 256.487C0.00195312 256.351 0.0559503 256.221 0.152101 256.125C0.248252 256.029 0.378712 255.975 0.514886 255.975H319.486C319.622 255.975 319.753 256.029 319.85 256.125C319.946 256.221 320 256.351 320 256.487C320 256.623 319.946 256.753 319.85 256.849C319.753 256.945 319.622 256.999 319.486 256.999Z" fill="#3F3D56"/>
</g>
<defs>
<clipPath id="clip0_607_61">
<rect width="320" height="257" fill="white"/>
</clipPath>
</defs>
</svg>
