<svg width="183" height="18" viewBox="0 0 183 18" fill="none" xmlns="http://www.w3.org/2000/svg">
<path d="M5.472 14.252C8.226 14.252 10.134 12.668 10.134 10.472C10.134 8.294 8.982 7.16 6.588 6.368L5.652 6.062C4.104 5.54 3.42 5 3.42 4.172C3.42 3.398 4.176 2.912 5.328 2.912C6.318 2.912 7.002 3.308 7.434 4.388C7.488 4.532 7.578 4.586 7.722 4.55L9.702 4.046C9.846 4.01 9.918 3.902 9.864 3.758C9.198 1.562 7.542 0.536 5.328 0.536C2.826 0.536 0.9 2.084 0.9 4.244C0.9 6.134 2.178 7.376 4.284 8.096L5.454 8.51C6.804 8.996 7.614 9.518 7.614 10.472C7.614 11.462 6.75 11.876 5.472 11.876C4.122 11.876 3.366 11.336 2.898 10.184C2.844 10.04 2.754 9.986 2.61 10.022L0.738 10.472C0.594 10.508 0.522 10.616 0.576 10.76C1.278 13.046 3.006 14.252 5.472 14.252ZM14.3762 14C14.5202 14 14.6102 13.91 14.6102 13.766V8.366H20.7302V13.766C20.7302 13.91 20.8202 14 20.9642 14H22.9262C23.0702 14 23.1602 13.91 23.1602 13.766V1.022C23.1602 0.877999 23.0702 0.788 22.9262 0.788H20.9642C20.8202 0.788 20.7302 0.877999 20.7302 1.022V6.08H14.6102V1.022C14.6102 0.877999 14.5202 0.788 14.3762 0.788H12.4142C12.2702 0.788 12.1802 0.877999 12.1802 1.022V13.766C12.1802 13.91 12.2702 14 12.4142 14H14.3762ZM32.2598 14.252C36.1118 14.252 38.9198 11.534 38.9198 7.394C38.9198 3.254 36.1118 0.536 32.2598 0.536C28.4078 0.536 25.5998 3.254 25.5998 7.394C25.5998 11.534 28.4078 14.252 32.2598 14.252ZM32.2598 11.876C29.7218 11.876 28.1198 10.004 28.1198 7.394C28.1198 4.784 29.7218 2.912 32.2598 2.912C34.7978 2.912 36.3998 4.784 36.3998 7.394C36.3998 10.004 34.7978 11.876 32.2598 11.876ZM46.1112 14C46.2372 14 46.3272 13.946 46.3632 13.802L49.1892 5.198L52.0152 13.802C52.0512 13.946 52.1412 14 52.2672 14H53.9232C54.0492 14 54.1572 13.946 54.1932 13.82L58.8012 1.058C58.8552 0.895999 58.7652 0.788 58.6032 0.788H56.3712C56.2452 0.788 56.1552 0.842 56.1192 0.985999L53.2032 9.914L50.2692 0.985999C50.2332 0.842 50.1432 0.788 50.0172 0.788H48.3972C48.2712 0.788 48.1812 0.842 48.1452 0.985999L45.2112 9.896L42.3132 0.985999C42.2772 0.842 42.1872 0.788 42.0612 0.788H39.7752C39.6132 0.788 39.5232 0.895999 39.5772 1.058L44.1852 13.82C44.2212 13.946 44.3292 14 44.4552 14H46.1112ZM65.8574 14C65.9654 14 66.0374 13.928 66.0374 13.802V9.194C66.0374 7.034 67.4594 6.062 68.7374 6.062C70.1234 6.062 70.8254 6.944 70.8254 8.69V13.802C70.8254 13.928 70.8974 14 71.0234 14H72.0854C72.1934 14 72.2654 13.928 72.2654 13.802V9.194C72.2654 7.034 73.6874 6.062 74.9654 6.062C76.3514 6.062 77.0534 6.944 77.0534 8.69V13.802C77.0534 13.928 77.1254 14 77.2514 14H78.3134C78.4214 14 78.4934 13.928 78.4934 13.802V8.096C78.4934 5.99 77.2874 4.73 75.3434 4.73C74.0114 4.73 72.6794 5.414 72.0494 6.764C71.6534 5.468 70.5914 4.73 69.1154 4.73C67.8734 4.73 66.6134 5.36 65.9834 6.602L65.9114 5.09C65.9114 4.964 65.8394 4.91 65.7134 4.91H64.7954C64.6694 4.91 64.5974 4.982 64.5974 5.09V13.802C64.5974 13.928 64.6694 14 64.7954 14H65.8574ZM85.0418 14.18C86.7878 14.18 88.1738 13.406 88.9478 11.804C89.0018 11.696 88.9478 11.606 88.8398 11.57L87.9398 11.246C87.8318 11.21 87.7418 11.228 87.6878 11.336C87.1838 12.326 86.3558 12.866 85.0418 12.866C83.3678 12.866 82.2698 11.714 82.1078 9.914H88.9658C89.0918 9.914 89.1638 9.842 89.1638 9.716C89.1998 6.764 87.7238 4.73 85.0418 4.73C82.3238 4.73 80.5958 6.71 80.5958 9.446C80.5958 12.182 82.3058 14.18 85.0418 14.18ZM82.1258 8.78C82.3418 7.088 83.4758 6.026 85.0418 6.026C86.5538 6.026 87.5078 7.142 87.6158 8.78H82.1258ZM98.3333 14.18C99.3053 14.18 100.187 13.73 100.763 12.578C100.835 12.434 100.799 12.326 100.691 12.272L99.8813 11.93C99.7733 11.876 99.6833 11.912 99.6293 12.02C99.3593 12.596 98.9633 12.848 98.4593 12.848C97.5593 12.848 97.1453 12.254 97.1453 10.886V6.206H99.6653C99.7733 6.206 99.8453 6.134 99.8453 6.026V5.09C99.8453 4.982 99.7733 4.91 99.6653 4.91H97.1453V2.12C97.1453 2.012 97.0733 1.94 96.9473 1.94H95.8853C95.7773 1.94 95.7053 2.012 95.7053 2.12V4.91H94.1033C93.9953 4.91 93.9233 4.982 93.9233 5.09V6.026C93.9233 6.134 93.9953 6.206 94.1033 6.206H95.7053V10.85C95.7053 13.154 96.6953 14.18 98.3333 14.18ZM103.598 14C103.706 14 103.778 13.928 103.778 13.802V9.194C103.778 7.034 105.308 6.062 106.604 6.062C108.116 6.062 108.8 6.944 108.8 8.69V13.802C108.8 13.928 108.872 14 108.998 14H110.06C110.168 14 110.24 13.928 110.24 13.802V8.096C110.24 5.99 109.034 4.73 106.982 4.73C105.758 4.73 104.444 5.306 103.778 6.512V0.68C103.778 0.571999 103.706 0.499999 103.598 0.499999H102.536C102.41 0.499999 102.338 0.571999 102.338 0.68V13.802C102.338 13.928 102.41 14 102.536 14H103.598ZM116.788 14.18C118.534 14.18 119.92 13.406 120.694 11.804C120.748 11.696 120.694 11.606 120.586 11.57L119.686 11.246C119.578 11.21 119.488 11.228 119.434 11.336C118.93 12.326 118.102 12.866 116.788 12.866C115.114 12.866 114.016 11.714 113.854 9.914H120.712C120.838 9.914 120.91 9.842 120.91 9.716C120.946 6.764 119.47 4.73 116.788 4.73C114.07 4.73 112.342 6.71 112.342 9.446C112.342 12.182 114.052 14.18 116.788 14.18ZM113.872 8.78C114.088 7.088 115.222 6.026 116.788 6.026C118.3 6.026 119.254 7.142 119.362 8.78H113.872ZM128.189 14C128.297 14 128.369 13.928 128.369 13.802V9.194C128.369 7.034 129.791 6.062 131.069 6.062C132.455 6.062 133.157 6.944 133.157 8.69V13.802C133.157 13.928 133.229 14 133.355 14H134.417C134.525 14 134.597 13.928 134.597 13.802V9.194C134.597 7.034 136.019 6.062 137.297 6.062C138.683 6.062 139.385 6.944 139.385 8.69V13.802C139.385 13.928 139.457 14 139.583 14H140.645C140.753 14 140.825 13.928 140.825 13.802V8.096C140.825 5.99 139.619 4.73 137.675 4.73C136.343 4.73 135.011 5.414 134.381 6.764C133.985 5.468 132.923 4.73 131.447 4.73C130.205 4.73 128.945 5.36 128.315 6.602L128.243 5.09C128.243 4.964 128.171 4.91 128.045 4.91H127.127C127.001 4.91 126.929 4.982 126.929 5.09V13.802C126.929 13.928 127.001 14 127.127 14H128.189ZM147.536 14.18C150.326 14.18 152.162 12.182 152.162 9.446C152.162 6.71 150.326 4.73 147.536 4.73C144.746 4.73 142.928 6.71 142.928 9.446C142.928 12.182 144.746 14.18 147.536 14.18ZM147.536 12.848C145.682 12.848 144.404 11.48 144.404 9.446C144.404 7.43 145.682 6.062 147.536 6.062C149.39 6.062 150.668 7.43 150.668 9.446C150.668 11.48 149.39 12.848 147.536 12.848ZM155.559 14C155.667 14 155.739 13.928 155.739 13.802V9.194C155.739 7.034 157.269 6.062 158.565 6.062C160.077 6.062 160.761 6.944 160.761 8.69V13.802C160.761 13.928 160.833 14 160.959 14H162.021C162.129 14 162.201 13.928 162.201 13.802V8.096C162.201 5.99 160.995 4.73 158.943 4.73C157.683 4.73 156.333 5.342 155.685 6.584L155.613 5.09C155.613 4.964 155.541 4.91 155.415 4.91H154.497C154.371 4.91 154.299 4.982 154.299 5.09V13.802C154.299 13.928 154.371 14 154.497 14H155.559ZM168.749 14.18C170.495 14.18 171.881 13.406 172.655 11.804C172.709 11.696 172.655 11.606 172.547 11.57L171.647 11.246C171.539 11.21 171.449 11.228 171.395 11.336C170.891 12.326 170.063 12.866 168.749 12.866C167.075 12.866 165.977 11.714 165.815 9.914H172.673C172.799 9.914 172.871 9.842 172.871 9.716C172.907 6.764 171.431 4.73 168.749 4.73C166.031 4.73 164.303 6.71 164.303 9.446C164.303 12.182 166.013 14.18 168.749 14.18ZM165.833 8.78C166.049 7.088 167.183 6.026 168.749 6.026C170.261 6.026 171.215 7.142 171.323 8.78H165.833ZM176.945 17.924C177.053 17.924 177.125 17.888 177.179 17.78L182.291 5.126C182.345 5 182.291 4.91 182.147 4.91H180.977C180.887 4.91 180.815 4.946 180.761 5.054L178.061 11.912L175.181 5.054C175.127 4.946 175.055 4.91 174.947 4.91H173.687C173.543 4.91 173.489 4.982 173.543 5.126L177.323 13.676L175.685 17.708C175.649 17.834 175.703 17.924 175.829 17.924H176.945Z" fill="black"/>
</svg>
