<svg width="466" height="342" viewBox="0 0 466 342" fill="none" xmlns="http://www.w3.org/2000/svg">
<g clip-path="url(#clip0_649_22)">
<path d="M440.458 342L440.989 341.019C433.873 337.172 425.017 332.384 420.392 324.526C415.832 316.78 415.73 306.261 420.125 297.075C423.865 289.257 430.735 282.252 439.994 276.819C441.82 275.747 443.737 274.731 445.591 273.749C450.072 271.375 454.705 268.919 458.526 265.436C463.788 260.638 467.77 252.587 464.802 245.415C463.826 243.126 462.228 241.156 460.189 239.73C458.149 238.303 455.751 237.477 453.265 237.345L453.203 238.459C455.479 238.579 457.677 239.336 459.546 240.642C461.414 241.948 462.879 243.752 463.774 245.849C466.532 252.513 462.748 260.076 457.774 264.612C454.058 268 449.488 270.421 445.068 272.763C443.204 273.751 441.276 274.773 439.429 275.857C429.978 281.403 422.955 288.574 419.118 296.593C414.565 306.11 414.684 317.03 419.43 325.092C424.213 333.217 433.22 338.088 440.458 342Z" fill="#F1F1F1"/>
<path d="M446.193 243.224C451.586 243.224 455.957 241.101 455.957 238.483C455.957 235.864 451.586 233.741 446.193 233.741C440.801 233.741 436.429 235.864 436.429 238.483C436.429 241.101 440.801 243.224 446.193 243.224Z" fill="#F1F1F1"/>
<path d="M438.382 274.462C443.774 274.462 448.146 272.34 448.146 269.721C448.146 267.102 443.774 264.979 438.382 264.979C432.989 264.979 428.618 267.102 428.618 269.721C428.618 272.34 432.989 274.462 438.382 274.462Z" fill="#F1F1F1"/>
<path d="M456.236 279.483C461.629 279.483 466 277.36 466 274.741C466 272.123 461.629 270 456.236 270C450.844 270 446.472 272.123 446.472 274.741C446.472 277.36 450.844 279.483 456.236 279.483Z" fill="#F1F1F1"/>
<path d="M428.339 305.701C433.731 305.701 438.103 303.578 438.103 300.959C438.103 298.341 433.731 296.218 428.339 296.218C422.946 296.218 418.575 298.341 418.575 300.959C418.575 303.578 422.946 305.701 428.339 305.701Z" fill="#F1F1F1"/>
<path d="M408.811 305.701C414.203 305.701 418.575 303.578 418.575 300.959C418.575 298.341 414.203 296.218 408.811 296.218C403.418 296.218 399.047 298.341 399.047 300.959C399.047 303.578 403.418 305.701 408.811 305.701Z" fill="#F1F1F1"/>
<path d="M76.5976 245.154H41.9524C41.0142 245.153 40.1148 244.78 39.4514 244.117C38.788 243.453 38.4148 242.554 38.4137 241.616V127.487C38.4148 126.549 38.788 125.65 39.4514 124.986C40.1148 124.323 41.0142 123.95 41.9524 123.949H76.5976C77.5358 123.95 78.4352 124.323 79.0986 124.986C79.762 125.65 80.1352 126.549 80.1363 127.487V241.616C80.1352 242.554 79.762 243.453 79.0986 244.117C78.4352 244.78 77.5358 245.153 76.5976 245.154Z" fill="#2660FF"/>
<path d="M139.778 245.154H105.132C104.194 245.153 103.295 244.78 102.631 244.117C101.968 243.453 101.595 242.554 101.594 241.616V82.1978C101.595 81.2599 101.968 80.3606 102.631 79.6974C103.295 79.0342 104.194 78.6612 105.132 78.6602H139.778C140.716 78.6612 141.615 79.0342 142.278 79.6974C142.942 80.3606 143.315 81.2599 143.316 82.1978V241.616C143.315 242.554 142.942 243.453 142.278 244.117C141.615 244.78 140.716 245.153 139.778 245.154Z" fill="#2660FF"/>
<path d="M202.957 245.154H168.312C167.374 245.153 166.475 244.78 165.811 244.117C165.148 243.453 164.775 242.554 164.774 241.616V127.487C164.775 126.549 165.148 125.65 165.811 124.986C166.475 124.323 167.374 123.95 168.312 123.949H202.957C203.896 123.95 204.795 124.323 205.458 124.986C206.122 125.65 206.495 126.549 206.496 127.487V241.616C206.495 242.554 206.122 243.453 205.458 244.117C204.795 244.78 203.896 245.153 202.957 245.154Z" fill="#2660FF"/>
<path d="M266.137 245.154H231.492C230.575 245.174 229.688 244.829 229.025 244.196C228.362 243.563 227.976 242.693 227.953 241.777V64.1604C227.976 63.2439 228.362 62.3738 229.025 61.7407C229.688 61.1077 230.575 60.7633 231.492 60.783H266.137C267.054 60.7633 267.941 61.1077 268.605 61.7407C269.268 62.3738 269.653 63.2439 269.676 64.1604V241.777C269.653 242.693 269.268 243.563 268.605 244.196C267.941 244.829 267.054 245.174 266.137 245.154Z" fill="#2660FF"/>
<path d="M329.317 245.154H294.672C293.734 245.153 292.835 244.78 292.171 244.116C291.508 243.453 291.135 242.554 291.133 241.616V32.1412C291.135 31.2032 291.508 30.304 292.171 29.6408C292.835 28.9776 293.734 28.6046 294.672 28.6035H329.317C330.255 28.6046 331.155 28.9776 331.818 29.6408C332.482 30.304 332.855 31.2032 332.856 32.1412V241.616C332.855 242.554 332.482 243.453 331.818 244.116C331.155 244.78 330.255 245.153 329.317 245.154Z" fill="#2660FF"/>
<path d="M59.275 109.648C63.2252 109.648 66.4275 106.446 66.4275 102.497C66.4275 98.5473 63.2252 95.3457 59.275 95.3457C55.3248 95.3457 52.1226 98.5473 52.1226 102.497C52.1226 106.446 55.3248 109.648 59.275 109.648Z" fill="#3F3D56"/>
<path d="M122.455 63.1661C126.405 63.1661 129.607 59.9645 129.607 56.0152C129.607 52.0658 126.405 48.8643 122.455 48.8643C118.505 48.8643 115.302 52.0658 115.302 56.0152C115.302 59.9645 118.505 63.1661 122.455 63.1661Z" fill="#3F3D56"/>
<path d="M185.635 109.648C189.585 109.648 192.787 106.446 192.787 102.497C192.787 98.5473 189.585 95.3457 185.635 95.3457C181.685 95.3457 178.482 98.5473 178.482 102.497C178.482 106.446 181.685 109.648 185.635 109.648Z" fill="#3F3D56"/>
<path d="M248.815 40.5216C252.765 40.5216 255.967 37.32 255.967 33.3706C255.967 29.4213 252.765 26.2197 248.815 26.2197C244.865 26.2197 241.662 29.4213 241.662 33.3706C241.662 37.32 244.865 40.5216 248.815 40.5216Z" fill="#3F3D56"/>
<path d="M311.995 14.3018C315.945 14.3018 319.147 11.1003 319.147 7.15092C319.147 3.20158 315.945 0 311.995 0C308.045 0 304.842 3.20158 304.842 7.15092C304.842 11.1003 308.045 14.3018 311.995 14.3018Z" fill="#3F3D56"/>
<path d="M369.915 246.482H0.557941C0.409966 246.482 0.268051 246.423 0.163417 246.318C0.0587825 246.214 0 246.072 0 245.924C0 245.776 0.0587825 245.634 0.163417 245.53C0.268051 245.425 0.409966 245.366 0.557941 245.366H369.915C370.063 245.366 370.205 245.425 370.31 245.53C370.414 245.634 370.473 245.776 370.473 245.924C370.473 246.072 370.414 246.214 370.31 246.318C370.205 246.423 370.063 246.482 369.915 246.482Z" fill="#CBCBCB"/>
<path d="M461.975 341.87H281.202C281.054 341.87 280.913 341.811 280.808 341.706C280.703 341.602 280.645 341.46 280.645 341.312C280.645 341.164 280.703 341.022 280.808 340.917C280.913 340.813 281.054 340.754 281.202 340.754H461.975C462.123 340.754 462.265 340.813 462.37 340.917C462.475 341.022 462.533 341.164 462.533 341.312C462.533 341.46 462.475 341.602 462.37 341.706C462.265 341.811 462.123 341.87 461.975 341.87Z" fill="#CBCBCB"/>
<path d="M345.888 237.415C346.346 236.96 346.7 236.409 346.922 235.802C347.145 235.194 347.232 234.546 347.177 233.902C347.122 233.257 346.926 232.633 346.604 232.072C346.281 231.512 345.84 231.029 345.31 230.657L347.504 220.789L341.831 217.994L338.929 231.973C338.364 232.903 338.16 234.009 338.355 235.08C338.551 236.151 339.133 237.113 339.99 237.784C340.848 238.455 341.922 238.788 343.009 238.72C344.096 238.652 345.12 238.188 345.888 237.415Z" fill="#FFB7B7"/>
<path d="M407.921 237.631C408.344 237.141 408.653 236.565 408.828 235.942C409.003 235.32 409.04 234.666 408.935 234.028C408.83 233.39 408.587 232.783 408.222 232.249C407.857 231.715 407.38 231.267 406.823 230.938L408.246 220.93L402.374 218.582L400.563 232.743C400.071 233.715 399.953 234.833 400.231 235.886C400.509 236.938 401.163 237.853 402.071 238.455C402.978 239.058 404.074 239.307 405.153 239.155C406.231 239.003 407.216 238.461 407.921 237.631L407.921 237.631Z" fill="#FFB7B7"/>
<path d="M363.701 335.853L357.916 335.852L355.164 313.545L363.702 313.546L363.701 335.853Z" fill="#FFB7B7"/>
<path d="M365.176 341.459L346.524 341.458V341.222C346.524 339.297 347.289 337.451 348.65 336.09C350.012 334.729 351.858 333.964 353.784 333.964H353.784L365.177 333.964L365.176 341.459Z" fill="#2F2E41"/>
<path d="M383.046 335.853L377.262 335.852L374.51 313.545L383.047 313.546L383.046 335.853Z" fill="#FFB7B7"/>
<path d="M384.522 341.459L365.869 341.458V341.222C365.87 339.297 366.634 337.451 367.996 336.09C369.357 334.729 371.204 333.964 373.129 333.964H373.13L384.522 333.964L384.522 341.459Z" fill="#2F2E41"/>
<path d="M394.693 148.174L400.931 145.924C400.931 145.924 403.579 146.486 403.579 153.664C403.579 160.842 410.61 227.789 410.61 227.789L398.305 231.028L391.35 167.513L394.693 148.174Z" fill="#2F2E41"/>
<path d="M353.012 148.174L346.774 145.924C346.774 145.924 344.127 146.486 344.127 153.664C344.127 160.842 337.095 227.789 337.095 227.789L349.4 231.028L356.355 167.513L353.012 148.174Z" fill="#2F2E41"/>
<path d="M353.092 224.527L351.387 274.816L355.162 330.444L364.888 330.669L366.303 278.778L374.324 252.832L373.515 329.305L384.528 329.173L391.35 276.561C391.35 276.561 400.357 233.019 395.362 224.527L372.357 216.879L353.092 224.527Z" fill="#2F2E41"/>
<path d="M353.279 218.468L352.724 230.565C352.724 230.565 360.486 234.427 374.129 232.074C387.772 229.722 396.841 231.273 396.841 231.273L395.793 215.852L353.279 218.468Z" fill="#E5E5E5"/>
<path d="M346.526 146.103L364.466 138.243L365.536 134.127L382.988 134.632L383.742 138.838L400.931 145.924L393.358 172.252L394.135 190.773L403.579 224.528C403.579 224.528 395.613 231.291 376.475 228.381L373.173 221.729L371.153 228.764C371.153 228.764 354.372 234.936 349.721 226.901L353.092 168.862L346.526 146.103Z" fill="#2F2E41"/>
<path d="M374.103 130.26C380.504 130.26 385.692 125.072 385.692 118.673C385.692 112.274 380.504 107.087 374.103 107.087C367.703 107.087 362.515 112.274 362.515 118.673C362.515 125.072 367.703 130.26 374.103 130.26Z" fill="#FFB7B7"/>
<path d="M387.873 114.184C387.666 113.241 387.267 112.351 386.702 111.568C386.477 109.403 385.755 107.32 384.592 105.48C384.136 104.618 383.489 103.872 382.701 103.298C381.798 102.778 380.767 102.521 379.726 102.557C379.537 102.553 379.197 102.611 378.891 102.625C378.696 102.564 378.498 102.51 378.3 102.459C378.185 102.202 377.956 101.453 377.892 101.504L377.028 102.19C376.664 102.126 376.297 102.077 375.928 102.038C375.794 101.655 375.66 101.273 375.526 100.891C375.309 101.233 375.118 101.591 374.956 101.962C374.589 101.944 374.223 101.938 373.856 101.943L373.122 101.239C373.079 101.435 372.979 101.615 372.835 101.756C372.692 101.897 372.51 101.992 372.312 102.031C371.975 102.066 371.639 102.111 371.303 102.165C371.276 102.165 371.248 102.165 371.222 102.165C369.415 102.119 367.471 102.038 365.96 103.03C365.253 103.516 364.677 104.169 364.285 104.931C364.1 105.057 363.914 105.182 363.734 105.315C363.128 105.728 362.603 106.249 362.184 106.851C361.88 107.37 361.649 107.93 361.499 108.512C360.922 110.267 360.655 112.108 360.709 113.953C360.771 115.811 361.472 117.592 362.695 118.993C363.47 119.825 364.455 120.44 365.231 121.271C366.828 122.983 367.128 125.371 368.495 127.183C369.94 129.099 372.578 130.359 374.895 130.721C376.288 130.931 377.709 130.863 379.076 130.522C380.443 130.182 381.729 129.574 382.86 128.735C383.403 128.357 383.864 127.873 384.216 127.313C385.02 125.923 384.68 124.175 384.978 122.596C385.538 119.638 388.362 117.155 387.873 114.184Z" fill="#2F2E41"/>
<path d="M58.8935 102.944L58.2273 102.049L122.455 54.242L185.431 101.205L249.268 31.9101L249.382 31.8633L311.336 6.29883L311.762 7.33024L249.922 32.8473L185.57 102.701L122.455 55.6332L58.8935 102.944Z" fill="#3F3D56"/>
</g>
<defs>
<clipPath id="clip0_649_22">
<rect width="466" height="342" fill="white"/>
</clipPath>
</defs>
</svg>
