<svg width="423" height="328" viewBox="0 0 423 328" fill="none" xmlns="http://www.w3.org/2000/svg">
<g clip-path="url(#clip0_647_3)">
<path d="M410.032 0H39.8897C36.4515 0.00413669 33.1554 1.37074 30.7243 3.80005C28.2932 6.22936 26.9255 9.52303 26.9214 12.9586V238.332C26.9255 241.767 28.2932 245.061 30.7243 247.49C33.1554 249.92 36.4515 251.286 39.8897 251.29H410.032C413.47 251.286 416.766 249.92 419.197 247.49C421.628 245.061 422.996 241.767 423 238.332V12.9586C422.996 9.52303 421.628 6.22936 419.197 3.80005C416.766 1.37074 413.47 0.0041382 410.032 0V0ZM421.857 238.332C421.857 239.884 421.551 241.42 420.957 242.854C420.362 244.287 419.491 245.59 418.393 246.687C417.295 247.785 415.992 248.655 414.557 249.249C413.122 249.843 411.585 250.148 410.032 250.148H39.8897C36.7534 250.148 33.7456 248.903 31.528 246.687C29.3103 244.471 28.0645 241.466 28.0645 238.332V90.0508C28.0645 78.3752 30.3659 66.8138 34.8373 56.027C39.3087 45.2401 45.8626 35.4389 54.1247 27.1829C62.3868 18.927 72.1953 12.3781 82.9903 7.90999C93.7852 3.44192 105.355 1.14223 117.04 1.14223H410.032C411.585 1.14223 413.122 1.44787 414.557 2.0417C415.992 2.63552 417.295 3.50591 418.393 4.60316C419.491 5.70041 420.362 7.00304 420.957 8.43666C421.551 9.87029 421.857 11.4068 421.857 12.9586V238.332Z" fill="#3F3D56"/>
<path d="M388.033 191.742H218.496C216.736 191.74 215.049 191.04 213.804 189.797C212.56 188.553 211.86 186.867 211.858 185.109V130.09C211.86 128.332 212.56 126.646 213.804 125.402C215.049 124.159 216.736 123.459 218.496 123.457H388.033C389.792 123.459 391.48 124.159 392.724 125.402C393.969 126.646 394.669 128.332 394.671 130.09V185.109C394.669 186.867 393.969 188.553 392.724 189.797C391.48 191.04 389.792 191.74 388.033 191.742V191.742Z" fill="#E6E6E6"/>
<path d="M123.685 36.384C126.413 36.384 128.624 34.125 128.624 31.3385C128.624 28.5519 126.413 26.293 123.685 26.293C120.957 26.293 118.745 28.5519 118.745 31.3385C118.745 34.125 120.957 36.384 123.685 36.384Z" fill="#3F3D56"/>
<path d="M106.622 36.384C109.35 36.384 111.561 34.125 111.561 31.3385C111.561 28.5519 109.35 26.293 106.622 26.293C103.894 26.293 101.683 28.5519 101.683 31.3385C101.683 34.125 103.894 36.384 106.622 36.384Z" fill="#3F3D56"/>
<path d="M89.5592 36.384C92.2871 36.384 94.4984 34.125 94.4984 31.3385C94.4984 28.5519 92.2871 26.293 89.5592 26.293C86.8314 26.293 84.62 28.5519 84.62 31.3385C84.62 34.125 86.8314 36.384 89.5592 36.384Z" fill="#3F3D56"/>
<path d="M285.071 82.8728H215.992C214.852 82.8728 213.758 82.4203 212.952 81.6149C212.146 80.8095 211.694 79.7171 211.694 78.578C211.694 77.439 212.146 76.3466 212.952 75.5411C213.758 74.7357 214.852 74.2832 215.992 74.2832H285.071C286.211 74.2832 287.304 74.7357 288.11 75.5411C288.916 76.3466 289.369 77.439 289.369 78.578C289.369 79.7171 288.916 80.8095 288.11 81.6149C287.304 82.4203 286.211 82.8728 285.071 82.8728Z" fill="#E6E6E6"/>
<path d="M338.981 97.4099H215.992C214.852 97.4099 213.758 96.9574 212.952 96.152C212.146 95.3466 211.694 94.2542 211.694 93.1151C211.694 91.9761 212.146 90.8837 212.952 90.0782C213.758 89.2728 214.852 88.8203 215.992 88.8203H338.981C340.121 88.8203 341.214 89.2728 342.02 90.0782C342.826 90.8837 343.279 91.9761 343.279 93.1151C343.279 94.2542 342.826 95.3466 342.02 96.152C341.214 96.9574 340.121 97.4099 338.981 97.4099V97.4099Z" fill="#E6E6E6"/>
<path d="M92.7687 321.581L98.535 321.58L101.278 299.355L92.7676 299.356L92.7687 321.581Z" fill="#FFB6B6"/>
<path d="M92.5655 327.592L110.298 327.592V327.368C110.297 325.539 109.57 323.784 108.276 322.491C106.982 321.198 105.226 320.471 103.396 320.471H103.395L100.156 318.016L94.1131 320.471L92.5652 320.471L92.5655 327.592Z" fill="#2F2E41"/>
<path d="M59.4357 321.581L65.202 321.58L67.9448 299.355L59.4346 299.356L59.4357 321.581Z" fill="#FFB6B6"/>
<path d="M59.2327 327.592L76.9648 327.592V327.368C76.9646 325.539 76.2374 323.784 74.9431 322.491C73.6488 321.198 71.8934 320.471 70.0629 320.471H70.0625L66.8235 318.016L60.7803 320.471L59.2324 320.471L59.2327 327.592Z" fill="#2F2E41"/>
<path d="M131.61 174.017L111.964 155.606L117.285 146.699L136.661 168.841C137.811 168.725 138.968 168.966 139.976 169.53C140.985 170.094 141.794 170.955 142.296 171.995C142.798 173.036 142.967 174.205 142.781 175.345C142.595 176.484 142.063 177.539 141.256 178.366C140.449 179.193 139.407 179.752 138.272 179.966C137.136 180.181 135.962 180.042 134.909 179.567C133.856 179.092 132.974 178.305 132.384 177.312C131.794 176.319 131.523 175.169 131.61 174.017V174.017Z" fill="#FFB6B6"/>
<path d="M53.7941 200.82C53.7941 200.82 51.3551 222.754 56.6396 243.47L54.6493 253.485L59.0786 310.899H69.83L77.3711 216.255L91.4481 310.899H102.74L101.354 258.906L106.242 208.944L104.2 197.57L53.7941 200.82Z" fill="#2F2E41"/>
<path d="M83.5042 115.365H59.4994L55.4624 125.621L56.4365 206.711C56.4365 206.711 103.997 206.711 107.249 203.461L97.0864 168.122L93.4279 123.034L83.5042 115.365Z" fill="#2660FF"/>
<path d="M96.6797 122.628L113.753 140.907L119.85 144.969L121.476 150.25L114.566 162.029L106.842 159.186L104.404 150.25L90.0716 138.542L88.5496 119.785L96.6797 122.628Z" fill="#2F2E41"/>
<path d="M81.2664 115.945L84.0755 127.929L87.9403 170.762L93.2247 203.257H108.47L99.3219 167.919L95.6635 122.425L83.4685 115.113L81.2664 115.945Z" fill="#2F2E41"/>
<path d="M61.6872 115.945L65.9892 129.736L72.8997 175.23L62.3307 207.725L52.0693 207.885L49.399 197.804L55.4202 171.98L47.29 122.425L59.485 115.113L61.6872 115.945Z" fill="#2F2E41"/>
<path d="M70.5693 111.303C78.6053 111.303 85.1197 104.794 85.1197 96.764C85.1197 88.7341 78.6053 82.2246 70.5693 82.2246C62.5334 82.2246 56.019 88.7341 56.019 96.764C56.019 104.794 62.5334 111.303 70.5693 111.303Z" fill="#FFB6B6"/>
<path d="M62.1753 103.962C62.1753 103.962 61.4765 105.021 62.8258 109.516L56.6397 104.553L55.963 99.1026C55.963 99.1026 52.8146 87.8667 63.6091 82.4735C63.6091 82.4735 73.0543 77.5297 82.0498 84.7206C82.0498 84.7206 85.6479 85.1701 85.1982 85.6195C84.7484 86.069 82.4995 87.4173 84.7484 86.9678C86.9972 86.5184 88.3465 84.2712 88.3465 85.6195C88.3465 86.9678 84.2986 90.1139 84.2986 90.1139C84.2986 90.1139 85.8728 94.3835 75.0783 88.5408C73.9237 91.4252 71.6994 93.7528 68.8692 95.0382L69.2155 95.3762L66.5326 101.125C66.5326 101.125 63.7495 97.4452 62.1753 103.962Z" fill="#2F2E41"/>
<path d="M63.3174 217.417L112.203 107.274C112.711 106.131 113.653 105.237 114.821 104.787C115.989 104.337 117.288 104.368 118.432 104.874L154.23 120.738C155.374 121.247 156.269 122.188 156.719 123.355C157.169 124.522 157.138 125.82 156.632 126.964L107.746 237.107C107.238 238.25 106.296 239.144 105.128 239.594C103.96 240.044 102.661 240.013 101.517 239.507L65.7191 223.643C64.5755 223.134 63.6803 222.193 63.2301 221.026C62.7798 219.859 62.8112 218.561 63.3174 217.417Z" fill="white"/>
<path d="M63.3174 217.417L112.203 107.274C112.711 106.131 113.653 105.237 114.821 104.787C115.989 104.337 117.288 104.368 118.432 104.874L154.23 120.738C155.374 121.247 156.269 122.188 156.719 123.355C157.169 124.522 157.138 125.82 156.632 126.964L107.746 237.107C107.238 238.25 106.296 239.144 105.128 239.594C103.96 240.044 102.661 240.013 101.517 239.507L65.7191 223.643C64.5755 223.134 63.6803 222.193 63.2301 221.026C62.7798 219.859 62.8112 218.561 63.3174 217.417ZM155.872 126.627C156.289 125.684 156.315 124.615 155.944 123.653C155.573 122.692 154.836 121.916 153.893 121.497L118.096 105.633C117.152 105.216 116.082 105.19 115.12 105.561C114.157 105.932 113.381 106.669 112.962 107.611L64.0768 217.754C63.6597 218.697 63.6338 219.766 64.0049 220.728C64.3759 221.689 65.1135 222.465 66.0559 222.884L101.853 238.748C102.797 239.165 103.867 239.191 104.829 238.82C105.792 238.449 106.568 237.712 106.987 236.77L155.872 126.627Z" fill="#3F3D56"/>
<path d="M116.754 172.38C126.856 172.38 135.046 164.196 135.046 154.101C135.046 144.006 126.856 135.822 116.754 135.822C106.651 135.822 98.4612 144.006 98.4612 154.101C98.4612 164.196 106.651 172.38 116.754 172.38Z" fill="#CCCCCC"/>
<path d="M107.854 192.431C117.957 192.431 126.147 184.247 126.147 174.152C126.147 164.057 117.957 155.873 107.854 155.873C97.7517 155.873 89.5619 164.057 89.5619 174.152C89.5619 184.247 97.7517 192.431 107.854 192.431Z" fill="#3F3D56"/>
<path d="M91.5388 210.912C89.3429 209.939 87.3603 208.543 85.7042 206.804C84.0482 205.065 82.751 203.017 81.8869 200.778C81.0228 198.538 80.6087 196.15 80.6681 193.75C80.7275 191.351 81.2593 188.986 82.2332 186.792C83.2071 184.598 84.604 182.617 86.3441 180.962C88.0842 179.307 90.1335 178.011 92.3749 177.147C94.6163 176.284 97.0059 175.87 99.4074 175.929C101.809 175.989 104.175 176.52 106.371 177.493C115.606 181.586 125.733 202.578 115.677 201.613C104.16 200.509 100.774 215.005 91.5388 210.912Z" fill="#2660FF"/>
<path d="M66.9348 200.068L52.6409 164.48L64.0717 166.765L73.6113 197.282C74.7146 197.626 75.6853 198.301 76.3917 199.214C77.0981 200.128 77.5059 201.237 77.5598 202.391C77.6138 203.544 77.3112 204.687 76.6932 205.662C76.0752 206.638 75.1717 207.4 74.1053 207.845C73.0389 208.29 71.8613 208.396 70.7324 208.15C69.6035 207.903 68.5779 207.315 67.7948 206.466C67.0118 205.616 66.5092 204.547 66.3554 203.403C66.2015 202.258 66.4038 201.094 66.9348 200.068L66.9348 200.068Z" fill="#FFB6B6"/>
<path d="M43.7902 131.106C42.9581 140.28 44.6815 148.335 47.7723 155.791L48.1692 162.423L51.3468 166.944L64.8965 168.712L67.3843 160.872L61.8151 153.467L61.3469 134.976L47.4517 122.273L43.7902 131.106Z" fill="#2F2E41"/>
<path d="M31.0112 318.102C30.7456 318.114 30.4826 318.044 30.2579 317.902C30.0332 317.76 29.8577 317.552 29.7551 317.307C29.6525 317.062 29.6278 316.791 29.6843 316.531C29.7409 316.272 29.8759 316.036 30.0712 315.855L30.1601 315.502C30.1484 315.474 30.1366 315.446 30.1248 315.418C29.8572 314.786 29.4087 314.247 28.8357 313.869C28.2628 313.492 27.5908 313.291 26.9044 313.294C26.2179 313.297 25.5475 313.502 24.9774 313.884C24.4072 314.266 23.9628 314.808 23.6999 315.441C22.649 317.97 21.3111 320.504 20.9817 323.178C20.8366 324.36 20.8978 325.558 21.1626 326.719C18.6945 321.339 17.4129 315.492 17.4046 309.574C17.4041 308.088 17.4867 306.604 17.652 305.129C17.7886 303.919 17.9781 302.717 18.2205 301.525C19.5433 295.053 22.3836 288.988 26.5079 283.826C28.5041 282.738 30.1184 281.064 31.1334 279.031C31.5011 278.3 31.761 277.519 31.9049 276.714C31.6797 276.744 31.0559 273.317 31.2257 273.106C30.9119 272.631 30.3502 272.394 30.0075 271.93C28.303 269.621 25.9546 270.024 24.7286 273.162C22.1097 274.483 22.0843 276.673 23.6913 278.78C24.7136 280.12 24.8541 281.934 25.7512 283.369C25.6589 283.487 25.5629 283.601 25.4706 283.719C23.7836 285.887 22.3132 288.214 21.0806 290.669C21.3803 287.919 21.0226 285.138 20.0367 282.553C19.0375 280.145 17.1648 278.116 15.5156 276.034C15.0794 275.475 14.487 275.057 13.8134 274.834C13.1397 274.611 12.415 274.593 11.7309 274.781C11.0468 274.97 10.4339 275.357 9.96982 275.893C9.50571 276.43 9.21117 277.091 9.12343 277.795C9.12005 277.826 9.11675 277.856 9.11354 277.887C9.3585 278.025 9.59829 278.172 9.8329 278.327C10.1276 278.524 10.356 278.805 10.4881 279.133C10.6202 279.462 10.6499 279.823 10.5732 280.169C10.4965 280.515 10.3171 280.829 10.0584 281.071C9.79972 281.314 9.47387 281.472 9.12354 281.526L9.08766 281.532C9.17492 282.414 9.32918 283.288 9.54909 284.147C7.43336 292.323 12.0011 295.301 18.5231 295.435C18.6671 295.508 18.8074 295.582 18.9514 295.652C17.713 299.159 16.9362 302.812 16.6405 306.519C16.4731 308.706 16.483 310.903 16.67 313.089L16.6589 313.011C16.1864 310.581 14.889 308.388 12.9859 306.803C10.1593 304.483 6.16577 303.629 3.11634 301.764C2.79226 301.556 2.41544 301.445 2.03031 301.444C1.64518 301.443 1.26781 301.552 0.942713 301.758C0.617618 301.965 0.358356 302.26 0.195505 302.608C0.0326552 302.957 -0.0269899 303.345 0.0236049 303.727L0.036076 303.808C0.490659 303.993 0.933265 304.206 1.36132 304.446C1.60628 304.584 1.84606 304.731 2.08068 304.886C2.37542 305.083 2.6038 305.364 2.7359 305.692C2.868 306.021 2.89765 306.382 2.82098 306.728C2.74431 307.074 2.56488 307.388 2.30621 307.631C2.04754 307.873 1.72169 308.031 1.37136 308.085L1.33545 308.091C1.30963 308.094 1.28744 308.098 1.26166 308.102C2.03837 309.955 3.12851 311.661 4.48433 313.144C5.80724 320.282 11.4891 320.959 17.5671 318.88H17.5708C18.2376 321.776 19.2038 324.595 20.4538 327.291H30.7531C30.7901 327.176 30.8233 327.058 30.8565 326.944C29.9032 327.004 28.9461 326.947 28.0067 326.774C28.7708 325.837 29.535 324.893 30.2991 323.956C30.3162 323.938 30.3322 323.92 30.3471 323.901C30.7347 323.421 31.126 322.945 31.5136 322.466L31.5138 322.465C31.5345 320.995 31.3657 319.529 31.0116 318.102L31.0112 318.102Z" fill="#F2F2F2"/>
<path d="M146.206 327.32C146.206 327.41 146.189 327.498 146.155 327.581C146.121 327.663 146.071 327.738 146.008 327.801C145.944 327.865 145.869 327.915 145.787 327.949C145.704 327.983 145.615 328 145.526 328H0.760213C0.57983 328 0.406835 327.928 0.279285 327.801C0.151735 327.673 0.0800781 327.501 0.0800781 327.32C0.0800781 327.14 0.151735 326.967 0.279285 326.84C0.406835 326.712 0.57983 326.641 0.760213 326.641H145.526C145.615 326.64 145.704 326.658 145.787 326.692C145.869 326.726 145.944 326.776 146.008 326.839C146.071 326.902 146.121 326.977 146.155 327.06C146.189 327.142 146.206 327.231 146.206 327.32Z" fill="#CCCCCC"/>
</g>
<defs>
<clipPath id="clip0_647_3">
<rect width="423" height="328" fill="white"/>
</clipPath>
</defs>
</svg>
