<svg width="408" height="315" viewBox="0 0 408 315" fill="none" xmlns="http://www.w3.org/2000/svg">
<g clip-path="url(#clip0_565_1923)">
<path d="M369.288 301.373H38.7119C32.9235 301.373 27.2088 300.076 21.9887 297.577C16.7686 295.079 12.1761 291.443 8.54935 286.936C4.9226 282.43 2.354 277.169 1.03272 271.54C-0.288564 265.91 -0.328864 260.057 0.914777 254.41L15.6806 187.371H392.32L407.085 254.41C408.329 260.057 408.289 265.91 406.968 271.54C405.646 277.169 403.078 282.43 399.451 286.936C395.824 291.443 391.232 295.079 386.012 297.577C380.791 300.076 375.077 301.373 369.288 301.373ZM16.5888 188.5L2.01829 254.653C0.810998 260.135 0.850151 265.817 2.13287 271.282C3.41559 276.747 5.9092 281.855 9.43007 286.229C12.9509 290.604 17.4094 294.134 22.477 296.559C27.5447 298.985 33.0925 300.244 38.7119 300.244H369.288C374.908 300.244 380.456 298.985 385.523 296.559C390.591 294.134 395.049 290.604 398.57 286.229C402.091 281.855 404.585 276.747 405.867 271.282C407.15 265.817 407.189 260.135 405.982 254.653L391.411 188.5H16.5888Z" fill="#F2F2F2"/>
<path d="M327.313 44.2342L344.653 41.6529L341.914 29.6042L331.518 34.8339L310.07 26.7598C309.764 25.9717 309.236 25.2894 308.549 24.7962C307.862 24.3029 307.046 24.02 306.2 23.982C305.355 23.9439 304.517 24.1523 303.788 24.5818C303.06 25.0112 302.472 25.6432 302.096 26.4006C301.721 27.158 301.574 28.0082 301.674 28.8474C301.774 29.6866 302.117 30.4786 302.66 31.1269C303.203 31.7751 303.922 32.2516 304.732 32.4982C305.541 32.7448 306.405 32.7509 307.217 32.5157L327.313 44.2342Z" fill="#FFB6B6"/>
<path d="M362.557 35.2265C361.217 40.3029 330.325 46.0289 330.34 44.9307C330.384 41.8095 332.37 35.2603 331.236 33.5613C330.587 32.5896 339.323 30.1068 339.323 30.1068C339.323 30.1068 344.144 28.2531 350.395 25.9908C352.15 25.3185 354.047 25.1007 355.909 25.3577C357.772 25.6147 359.539 26.3381 361.046 27.4606C361.046 27.4606 363.898 30.1501 362.557 35.2265Z" fill="#2660FF"/>
<path d="M63.7143 246.627H52.9791C50.5815 246.627 48.2821 247.578 46.5868 249.272C44.8914 250.965 43.939 253.262 43.939 255.657C43.939 258.052 44.8914 260.348 46.5868 262.042C48.2821 263.735 50.5815 264.687 52.9791 264.687H63.7143C66.1119 264.687 68.4113 263.735 70.1066 262.042C71.802 260.348 72.7544 258.052 72.7544 255.657C72.7544 253.262 71.802 250.965 70.1066 249.272C68.4113 247.578 66.1119 246.627 63.7143 246.627Z" fill="#E6E6E6"/>
<path d="M98.1798 246.627H87.4447C85.0471 246.627 82.7477 247.578 81.0523 249.272C79.357 250.965 78.4045 253.262 78.4045 255.657C78.4045 258.052 79.357 260.348 81.0523 262.042C82.7477 263.735 85.0471 264.687 87.4447 264.687H98.1798C100.577 264.687 102.877 263.735 104.572 262.042C106.268 260.348 107.22 258.052 107.22 255.657C107.22 253.262 106.268 250.965 104.572 249.272C102.877 247.578 100.577 246.627 98.1798 246.627Z" fill="#E6E6E6"/>
<path d="M132.645 246.627H121.91C119.513 246.627 117.213 247.578 115.518 249.272C113.823 250.965 112.87 253.262 112.87 255.657C112.87 258.052 113.823 260.348 115.518 262.042C117.213 263.735 119.513 264.687 121.91 264.687H132.645C135.043 264.687 137.342 263.735 139.038 262.042C140.733 260.348 141.686 258.052 141.686 255.657C141.686 253.262 140.733 250.965 139.038 249.272C137.342 247.578 135.043 246.627 132.645 246.627Z" fill="#E6E6E6"/>
<path d="M167.111 246.627H156.376C153.978 246.627 151.679 247.578 149.983 249.272C148.288 250.965 147.336 253.262 147.336 255.657C147.336 258.052 148.288 260.348 149.983 262.042C151.679 263.735 153.978 264.687 156.376 264.687H167.111C169.508 264.687 171.808 263.735 173.503 262.042C175.199 260.348 176.151 258.052 176.151 255.657C176.151 253.262 175.199 250.965 173.503 249.272C171.808 247.578 169.508 246.627 167.111 246.627Z" fill="#E6E6E6"/>
<path d="M201.576 246.627H190.841C188.444 246.627 186.144 247.578 184.449 249.272C182.754 250.965 181.801 253.262 181.801 255.657C181.801 258.052 182.754 260.348 184.449 262.042C186.144 263.735 188.444 264.687 190.841 264.687H201.576C203.974 264.687 206.273 263.735 207.969 262.042C209.664 260.348 210.617 258.052 210.617 255.657C210.617 253.262 209.664 250.965 207.969 249.272C206.273 247.578 203.974 246.627 201.576 246.627Z" fill="#E6E6E6"/>
<path d="M236.042 246.627H225.307C222.909 246.627 220.61 247.578 218.915 249.272C217.219 250.965 216.267 253.262 216.267 255.657C216.267 258.052 217.219 260.348 218.915 262.042C220.61 263.735 222.909 264.687 225.307 264.687H236.042C238.44 264.687 240.739 263.735 242.434 262.042C244.13 260.348 245.082 258.052 245.082 255.657C245.082 253.262 244.13 250.965 242.434 249.272C240.739 247.578 238.44 246.627 236.042 246.627Z" fill="#E6E6E6"/>
<path d="M270.507 246.627H259.772C257.375 246.627 255.075 247.578 253.38 249.272C251.685 250.965 250.732 253.262 250.732 255.657C250.732 258.052 251.685 260.348 253.38 262.042C255.075 263.735 257.375 264.687 259.772 264.687H270.507C272.905 264.687 275.204 263.735 276.9 262.042C278.595 260.348 279.548 258.052 279.548 255.657C279.548 253.262 278.595 250.965 276.9 249.272C275.204 247.578 272.905 246.627 270.507 246.627Z" fill="#E6E6E6"/>
<path d="M304.973 246.627H294.238C291.84 246.627 289.541 247.578 287.846 249.272C286.15 250.965 285.198 253.262 285.198 255.657C285.198 258.052 286.15 260.348 287.846 262.042C289.541 263.735 291.84 264.687 294.238 264.687H304.973C307.371 264.687 309.67 263.735 311.365 262.042C313.061 260.348 314.013 258.052 314.013 255.657C314.013 253.262 313.061 250.965 311.365 249.272C309.67 247.578 307.371 246.627 304.973 246.627Z" fill="#E6E6E6"/>
<path d="M339.439 246.627H328.703C326.306 246.627 324.006 247.578 322.311 249.272C320.616 250.965 319.663 253.262 319.663 255.657C319.663 258.052 320.616 260.348 322.311 262.042C324.006 263.735 326.306 264.687 328.703 264.687H339.439C341.836 264.687 344.136 263.735 345.831 262.042C347.526 260.348 348.479 258.052 348.479 255.657C348.479 253.262 347.526 250.965 345.831 249.272C344.136 247.578 341.836 246.627 339.439 246.627Z" fill="#E6E6E6"/>
<path d="M63.7143 208.814H52.9791C50.5815 208.814 48.2821 209.766 46.5868 211.459C44.8914 213.153 43.939 215.449 43.939 217.844C43.939 220.239 44.8914 222.536 46.5868 224.229C48.2821 225.923 50.5815 226.874 52.9791 226.874H63.7143C66.1119 226.874 68.4113 225.923 70.1066 224.229C71.802 222.536 72.7544 220.239 72.7544 217.844C72.7544 215.449 71.802 213.153 70.1066 211.459C68.4113 209.766 66.1119 208.814 63.7143 208.814Z" fill="#E6E6E6"/>
<path d="M98.1798 208.814H87.4447C85.0471 208.814 82.7477 209.766 81.0523 211.459C79.357 213.153 78.4045 215.449 78.4045 217.844C78.4045 220.239 79.357 222.536 81.0523 224.229C82.7477 225.923 85.0471 226.874 87.4447 226.874H98.1798C100.577 226.874 102.877 225.923 104.572 224.229C106.268 222.536 107.22 220.239 107.22 217.844C107.22 215.449 106.268 213.153 104.572 211.459C102.877 209.766 100.577 208.814 98.1798 208.814Z" fill="#E6E6E6"/>
<path d="M132.645 208.814H121.91C119.513 208.814 117.213 209.766 115.518 211.459C113.823 213.153 112.87 215.449 112.87 217.844C112.87 220.239 113.823 222.536 115.518 224.229C117.213 225.923 119.513 226.874 121.91 226.874H132.645C135.043 226.874 137.342 225.923 139.038 224.229C140.733 222.536 141.686 220.239 141.686 217.844C141.686 215.449 140.733 213.153 139.038 211.459C137.342 209.766 135.043 208.814 132.645 208.814Z" fill="#2660FF"/>
<path d="M167.111 208.814H156.376C153.978 208.814 151.679 209.766 149.983 211.459C148.288 213.153 147.336 215.449 147.336 217.844C147.336 220.239 148.288 222.536 149.983 224.229C151.679 225.923 153.978 226.874 156.376 226.874H167.111C169.508 226.874 171.808 225.923 173.503 224.229C175.199 222.536 176.151 220.239 176.151 217.844C176.151 215.449 175.199 213.153 173.503 211.459C171.808 209.766 169.508 208.814 167.111 208.814Z" fill="#E6E6E6"/>
<path d="M201.576 208.814H190.841C188.444 208.814 186.144 209.766 184.449 211.459C182.754 213.153 181.801 215.449 181.801 217.844C181.801 220.239 182.754 222.536 184.449 224.229C186.144 225.923 188.444 226.874 190.841 226.874H201.576C203.974 226.874 206.273 225.923 207.969 224.229C209.664 222.536 210.617 220.239 210.617 217.844C210.617 215.449 209.664 213.153 207.969 211.459C206.273 209.766 203.974 208.814 201.576 208.814Z" fill="#E6E6E6"/>
<path d="M236.042 208.814H225.307C222.909 208.814 220.61 209.766 218.915 211.459C217.219 213.153 216.267 215.449 216.267 217.844C216.267 220.239 217.219 222.536 218.915 224.229C220.61 225.923 222.909 226.874 225.307 226.874H236.042C238.44 226.874 240.739 225.923 242.434 224.229C244.13 222.536 245.082 220.239 245.082 217.844C245.082 215.449 244.13 213.153 242.434 211.459C240.739 209.766 238.44 208.814 236.042 208.814Z" fill="#E6E6E6"/>
<path d="M270.507 208.814H259.772C257.375 208.814 255.075 209.766 253.38 211.459C251.685 213.153 250.732 215.449 250.732 217.844C250.732 220.239 251.685 222.536 253.38 224.229C255.075 225.923 257.375 226.874 259.772 226.874H270.507C272.905 226.874 275.204 225.923 276.9 224.229C278.595 222.536 279.548 220.239 279.548 217.844C279.548 215.449 278.595 213.153 276.9 211.459C275.204 209.766 272.905 208.814 270.507 208.814Z" fill="#E6E6E6"/>
<path d="M304.973 208.814H294.238C291.84 208.814 289.541 209.766 287.846 211.459C286.15 213.153 285.198 215.449 285.198 217.844C285.198 220.239 286.15 222.536 287.846 224.229C289.541 225.923 291.84 226.874 294.238 226.874H304.973C307.371 226.874 309.67 225.923 311.365 224.229C313.061 222.536 314.013 220.239 314.013 217.844C314.013 215.449 313.061 213.153 311.365 211.459C309.67 209.766 307.371 208.814 304.973 208.814Z" fill="#E6E6E6"/>
<path d="M339.439 208.814H328.703C326.306 208.814 324.006 209.766 322.311 211.459C320.616 213.153 319.663 215.449 319.663 217.844C319.663 220.239 320.616 222.536 322.311 224.229C324.006 225.923 326.306 226.874 328.703 226.874H339.439C341.836 226.874 344.136 225.923 345.831 224.229C347.526 222.536 348.479 220.239 348.479 217.844C348.479 215.449 347.526 213.153 345.831 211.459C344.136 209.766 341.836 208.814 339.439 208.814Z" fill="#E6E6E6"/>
<path d="M79.8171 228.285H69.0819C66.6843 228.285 64.3849 229.237 62.6896 230.93C60.9942 232.623 60.0417 234.92 60.0417 237.315C60.0417 239.71 60.9942 242.007 62.6896 243.7C64.3849 245.393 66.6843 246.345 69.0819 246.345H79.8171C82.2147 246.345 84.5141 245.393 86.2094 243.7C87.9048 242.007 88.8572 239.71 88.8572 237.315C88.8572 234.92 87.9048 232.623 86.2094 230.93C84.5141 229.237 82.2147 228.285 79.8171 228.285Z" fill="#E6E6E6"/>
<path d="M114.283 228.285H103.547C101.15 228.285 98.8505 229.237 97.1551 230.93C95.4598 232.623 94.5073 234.92 94.5073 237.315C94.5073 239.71 95.4598 242.007 97.1551 243.7C98.8505 245.393 101.15 246.345 103.547 246.345H114.283C116.68 246.345 118.98 245.393 120.675 243.7C122.37 242.007 123.323 239.71 123.323 237.315C123.323 234.92 122.37 232.623 120.675 230.93C118.98 229.237 116.68 228.285 114.283 228.285Z" fill="#E6E6E6"/>
<path d="M148.748 228.285H138.013C135.615 228.285 133.316 229.237 131.621 230.93C129.925 232.623 128.973 234.92 128.973 237.315C128.973 239.71 129.925 242.007 131.621 243.7C133.316 245.393 135.615 246.345 138.013 246.345H148.748C151.146 246.345 153.445 245.393 155.141 243.7C156.836 242.007 157.788 239.71 157.788 237.315C157.788 234.92 156.836 232.623 155.141 230.93C153.445 229.237 151.146 228.285 148.748 228.285Z" fill="#E6E6E6"/>
<path d="M183.214 228.285H172.478C170.081 228.285 167.781 229.237 166.086 230.93C164.391 232.623 163.438 234.92 163.438 237.315C163.438 239.71 164.391 242.007 166.086 243.7C167.781 245.393 170.081 246.345 172.478 246.345H183.214C185.611 246.345 187.911 245.393 189.606 243.7C191.301 242.007 192.254 239.71 192.254 237.315C192.254 234.92 191.301 232.623 189.606 230.93C187.911 229.237 185.611 228.285 183.214 228.285Z" fill="#E6E6E6"/>
<path d="M217.679 228.285H206.944C204.546 228.285 202.247 229.237 200.552 230.93C198.856 232.623 197.904 234.92 197.904 237.315C197.904 239.71 198.856 242.007 200.552 243.7C202.247 245.393 204.546 246.345 206.944 246.345H217.679C220.077 246.345 222.376 245.393 224.072 243.7C225.767 242.007 226.719 239.71 226.719 237.315C226.719 234.92 225.767 232.623 224.072 230.93C222.376 229.237 220.077 228.285 217.679 228.285Z" fill="#E6E6E6"/>
<path d="M252.145 228.285H241.41C239.012 228.285 236.713 229.237 235.017 230.93C233.322 232.623 232.37 234.92 232.37 237.315C232.37 239.71 233.322 242.007 235.017 243.7C236.713 245.393 239.012 246.345 241.41 246.345H252.145C254.542 246.345 256.842 245.393 258.537 243.7C260.233 242.007 261.185 239.71 261.185 237.315C261.185 234.92 260.233 232.623 258.537 230.93C256.842 229.237 254.542 228.285 252.145 228.285Z" fill="#E6E6E6"/>
<path d="M286.61 228.285H275.875C273.478 228.285 271.178 229.237 269.483 230.93C267.787 232.623 266.835 234.92 266.835 237.315C266.835 239.71 267.787 242.007 269.483 243.7C271.178 245.393 273.478 246.345 275.875 246.345H286.61C289.008 246.345 291.307 245.393 293.003 243.7C294.698 242.007 295.65 239.71 295.65 237.315C295.65 234.92 294.698 232.623 293.003 230.93C291.307 229.237 289.008 228.285 286.61 228.285Z" fill="#E6E6E6"/>
<path d="M321.076 228.285H310.341C307.943 228.285 305.644 229.237 303.948 230.93C302.253 232.623 301.301 234.92 301.301 237.315C301.301 239.71 302.253 242.007 303.948 243.7C305.644 245.393 307.943 246.345 310.341 246.345H321.076C323.473 246.345 325.773 245.393 327.468 243.7C329.164 242.007 330.116 239.71 330.116 237.315C330.116 234.92 329.164 232.623 327.468 230.93C325.773 229.237 323.473 228.285 321.076 228.285Z" fill="#E6E6E6"/>
<path d="M355.541 228.285H344.806C342.409 228.285 340.109 229.237 338.414 230.93C336.719 232.623 335.766 234.92 335.766 237.315C335.766 239.71 336.719 242.007 338.414 243.7C340.109 245.393 342.409 246.345 344.806 246.345H355.541C357.939 246.345 360.238 245.393 361.934 243.7C363.629 242.007 364.582 239.71 364.582 237.315C364.582 234.92 363.629 232.623 361.934 230.93C360.238 229.237 357.939 228.285 355.541 228.285Z" fill="#E6E6E6"/>
<path d="M315.783 187.933H92.7378C89.1998 187.929 85.8079 186.524 83.3062 184.025C80.8045 181.526 79.3973 178.138 79.3933 174.604L79.4079 174.477C87.2987 140.374 87.2957 97.6209 79.3986 39.9312L79.3933 39.8546C79.3973 36.3207 80.8046 32.9327 83.3063 30.4339C85.808 27.935 89.1998 26.5294 92.7378 26.5254H315.783C319.321 26.5294 322.713 27.935 325.214 30.4339C327.716 32.9327 329.123 36.3208 329.127 39.8547L329.115 39.9726C319.571 84.3038 319.571 130.155 329.115 174.486L329.127 174.604C329.123 178.138 327.716 181.526 325.214 184.025C322.713 186.524 319.321 187.929 315.783 187.933Z" fill="white"/>
<path d="M315.783 187.933H92.7378C89.1998 187.929 85.8079 186.524 83.3062 184.025C80.8045 181.526 79.3973 178.138 79.3933 174.604L79.4079 174.477C87.2987 140.374 87.2957 97.6209 79.3986 39.9312L79.3933 39.8546C79.3973 36.3207 80.8046 32.9327 83.3063 30.4339C85.808 27.935 89.1998 26.5294 92.7378 26.5254H315.783C319.321 26.5294 322.713 27.935 325.214 30.4339C327.716 32.9327 329.123 36.3208 329.127 39.8547L329.115 39.9726C319.571 84.3038 319.571 130.155 329.115 174.486L329.127 174.604C329.123 178.138 327.716 181.526 325.214 184.025C322.713 186.524 319.321 187.929 315.783 187.933ZM80.5236 174.668C80.5441 177.891 81.8395 180.976 84.1275 183.249C86.4154 185.523 89.5104 186.801 92.7378 186.805H315.783C319.011 186.801 322.107 185.522 324.395 183.248C326.683 180.973 327.978 177.887 327.997 174.663C318.436 130.214 318.436 84.2443 327.997 39.7956C327.978 36.5713 326.683 33.4853 324.395 31.2108C322.107 28.9363 319.011 27.6578 315.783 27.6541H92.7378C89.506 27.6578 86.4071 28.9392 84.1184 31.2182C81.8296 33.4972 80.5371 36.5886 80.5233 39.8166C88.4293 97.5897 88.4299 140.446 80.5236 174.668Z" fill="#E6E6E6"/>
<path d="M292.402 66.3123H112.164C111.19 66.3123 110.256 65.9258 109.567 65.2379C108.878 64.5499 108.491 63.6169 108.491 62.6439C108.491 61.671 108.878 60.738 109.567 60.05C110.256 59.3621 111.19 58.9756 112.164 58.9756H292.402C293.376 58.9756 294.31 59.3621 294.998 60.05C295.687 60.738 296.074 61.671 296.074 62.6439C296.074 63.6169 295.687 64.5499 294.998 65.2379C294.31 65.9258 293.376 66.3123 292.402 66.3123Z" fill="#E6E6E6"/>
<path d="M292.402 84.0906H112.164C111.19 84.0906 110.256 83.7041 109.567 83.0162C108.878 82.3282 108.491 81.3952 108.491 80.4223C108.491 79.4494 108.878 78.5163 109.567 77.8283C110.256 77.1404 111.19 76.7539 112.164 76.7539H292.402C293.376 76.7539 294.31 77.1404 294.998 77.8283C295.687 78.5163 296.074 79.4494 296.074 80.4223C296.074 81.3952 295.687 82.3282 294.998 83.0162C294.31 83.7041 293.376 84.0906 292.402 84.0906Z" fill="#E6E6E6"/>
<path d="M292.402 101.868H112.164C111.19 101.868 110.256 101.481 109.567 100.794C108.878 100.106 108.491 99.1725 108.491 98.1996C108.491 97.2267 108.878 96.2936 109.567 95.6057C110.256 94.9177 111.19 94.5312 112.164 94.5312H292.402C293.376 94.5312 294.31 94.9177 294.998 95.6057C295.687 96.2936 296.074 97.2267 296.074 98.1996C296.074 99.1725 295.687 100.106 294.998 100.794C294.31 101.481 293.376 101.868 292.402 101.868Z" fill="#E6E6E6"/>
<path d="M292.402 119.645H112.164C111.19 119.645 110.256 119.259 109.567 118.571C108.878 117.883 108.491 116.95 108.491 115.977C108.491 115.004 108.878 114.071 109.567 113.383C110.256 112.695 111.19 112.309 112.164 112.309H292.402C293.376 112.309 294.31 112.695 294.998 113.383C295.687 114.071 296.074 115.004 296.074 115.977C296.074 116.95 295.687 117.883 294.998 118.571C294.31 119.259 293.376 119.645 292.402 119.645Z" fill="#E6E6E6"/>
<path d="M292.402 137.423H112.164C111.19 137.423 110.256 137.036 109.567 136.348C108.878 135.66 108.491 134.727 108.491 133.754C108.491 132.781 108.878 131.848 109.567 131.16C110.256 130.472 111.19 130.086 112.164 130.086H292.402C293.376 130.086 294.31 130.472 294.998 131.16C295.687 131.848 296.074 132.781 296.074 133.754C296.074 134.727 295.687 135.66 294.998 136.348C294.31 137.036 293.376 137.423 292.402 137.423Z" fill="#E6E6E6"/>
<path d="M192.96 155.2H112.164C111.19 155.2 110.256 154.814 109.567 154.126C108.878 153.438 108.491 152.505 108.491 151.532C108.491 150.559 108.878 149.626 109.567 148.938C110.256 148.25 111.19 147.863 112.164 147.863H192.96C193.934 147.863 194.868 148.25 195.557 148.938C196.246 149.626 196.633 150.559 196.633 151.532C196.633 152.505 196.246 153.438 195.557 154.126C194.868 154.814 193.934 155.2 192.96 155.2Z" fill="#2660FF"/>
<path d="M203.233 183.136H188.36C188.134 183.134 187.912 183.081 187.71 182.982C187.507 182.882 187.33 182.738 187.191 182.561C187.027 182.352 186.911 182.109 186.853 181.85C186.794 181.592 186.794 181.323 186.852 181.064L193.851 149.434C193.906 149.079 194.086 148.755 194.357 148.519C194.629 148.283 194.975 148.151 195.334 148.146C195.694 148.14 196.044 148.262 196.323 148.489C196.601 148.716 196.79 149.035 196.857 149.388L204.731 181.018C204.797 181.279 204.802 181.552 204.748 181.817C204.693 182.081 204.58 182.329 204.416 182.544C204.277 182.726 204.098 182.874 203.893 182.977C203.688 183.08 203.462 183.134 203.233 183.136Z" fill="#E6E6E6"/>
<path d="M390.148 194.988H18.3724C16.3494 194.988 14.4093 194.185 12.9788 192.756C11.5484 191.327 10.7448 189.39 10.7448 187.369C10.7448 185.348 11.5484 183.41 12.9788 181.982C14.4093 180.553 16.3494 179.75 18.3724 179.75H390.148C392.171 179.75 394.111 180.553 395.542 181.982C396.972 183.41 397.776 185.348 397.776 187.369C397.776 189.39 396.972 191.327 395.542 192.756C394.111 194.185 392.171 194.988 390.148 194.988Z" fill="#F2F2F2"/>
<path d="M343.069 175.909L337.644 175.908L335.064 155.007L343.07 155.007L343.069 175.909Z" fill="#FFB6B6"/>
<path d="M344.453 181.16L326.96 181.16V180.939C326.96 179.135 327.678 177.405 328.955 176.13C330.231 174.855 331.963 174.138 333.769 174.138H333.769L336.965 171.717L342.926 174.138L344.453 174.139L344.453 181.16Z" fill="#2F2E41"/>
<path d="M392.088 168.863L387.233 171.28L375.588 153.724L382.754 150.156L392.088 168.863Z" fill="#FFB6B6"/>
<path d="M395.672 172.948L380.016 180.742L379.918 180.544C379.112 178.93 378.982 177.062 379.555 175.351C380.128 173.641 381.358 172.228 382.974 171.423L382.974 171.423L384.753 167.832L391.17 167.343L392.536 166.663L395.672 172.948Z" fill="#2F2E41"/>
<path d="M340.666 80.9814L370.58 82.0273L372.817 86.1765C372.817 86.1765 375.16 103.152 373.96 104.351C372.76 105.549 372.16 105.549 372.76 107.646C373.36 109.743 374.911 129.782 374.911 129.782C374.911 129.782 387.268 155.385 387.868 156.883C388.468 158.381 389.068 157.782 388.468 158.381C387.937 158.953 387.436 159.553 386.968 160.178H377.191C377.191 160.178 371.927 146.914 367.108 141.784C362.853 137.254 360.158 131.484 359.417 125.317L355.363 106.148L346.665 135.509C346.665 135.509 345.165 164.571 345.465 166.069L345.765 167.567L334.241 167.696C334.241 167.696 333.041 165.17 333.641 164.271C334.241 163.372 334.205 163.618 333.473 162.147C332.741 160.676 333.041 158.184 333.041 158.184C333.041 158.184 337.366 99.2573 337.366 98.3585C337.389 97.896 337.304 97.4346 337.117 97.0106V95.7906L338.266 91.4676L340.666 80.9814Z" fill="#2F2E41"/>
<path d="M353.564 26.7676C351.617 27.9239 350.452 30.0483 349.783 32.2102C348.545 36.2125 347.8 40.3506 347.564 44.533L346.858 57.0543C346.506 65.135 344.256 73.0197 340.289 80.071C339.994 80.6079 339.827 81.2047 339.798 81.816C339.77 82.4274 339.881 83.0372 340.124 83.5991C340.367 84.1609 340.735 84.66 341.2 85.0584C341.665 85.4567 342.215 85.7438 342.808 85.8978C353.65 88.7396 374.185 85.1717 374.185 85.1717C374.185 85.1717 375.06 84.8805 374.185 84.0068C373.31 83.1332 371.348 78.7649 371.348 78.7649L373.681 63.461L376.596 32.592C373.097 28.2237 366.061 25.6486 366.061 25.6486L364.243 22.3799L355.153 23.1063L353.564 26.7676Z" fill="#2660FF"/>
<path d="M359.334 20.4801C364.157 20.4801 368.066 16.5749 368.066 11.7576C368.066 6.94034 364.157 3.03516 359.334 3.03516C354.511 3.03516 350.602 6.94034 350.602 11.7576C350.602 16.5749 354.511 20.4801 359.334 20.4801Z" fill="#FFB8B8"/>
<path d="M370.094 11.2398C369.704 13.007 369 14.6903 368.017 16.2101C367.756 16.7283 367.365 17.1707 366.884 17.4949C366.64 17.6512 366.349 17.7172 366.061 17.6813C365.774 17.6454 365.508 17.5099 365.31 17.2985L365.098 17.1256C365.515 16.8692 365.887 16.5467 366.199 16.1708C366.354 15.9822 366.462 15.7593 366.513 15.5208C366.564 15.2823 366.558 15.0351 366.494 14.7995C366.419 14.5673 366.256 14.3732 366.041 14.2582C365.825 14.1432 365.573 14.1161 365.338 14.1827C364.827 14.3831 364.516 15.1217 363.981 15.0078C363.548 14.9135 363.458 14.3438 363.458 13.8959C363.473 11.5541 362.34 8.22613 361.463 8.3283C360.577 8.37669 359.69 8.25806 358.847 7.9786C358.004 7.69866 357.114 7.58523 356.228 7.64461C356.165 7.65248 356.102 7.66427 356.035 7.67605C355.893 7.23113 355.697 6.805 355.453 6.40695C355.48 6.88745 355.457 7.36952 355.382 7.845C354.676 8.13547 353.947 8.3655 353.203 8.53259C352.392 8.64655 350.61 11.0669 350.528 10.8193C350.386 10.3744 350.19 9.9483 349.946 9.55025C349.973 10.0308 349.949 10.5128 349.875 10.9883C349.871 11.0079 349.871 11.0237 349.867 11.0433C349.474 10.5207 349.234 9.88422 349.367 10.3714C348.05 7.39317 348.561 5.25965 350.634 2.74894C351.038 2.20908 351.573 1.78051 352.188 1.50338C352.496 1.36822 352.834 1.31458 353.168 1.34761C353.503 1.38065 353.824 1.49925 354.1 1.692C354.945 0.9177 355.982 0.383337 357.104 0.1443C358.226 -0.0947372 359.392 -0.0297552 360.48 0.332513C362.639 1.08299 364.303 1.52305 364.634 3.78623C365.535 3.6878 366.445 3.84584 367.26 4.24211C368.075 4.63838 368.762 5.25672 369.24 6.02581C370.171 7.59475 370.476 9.4564 370.094 11.2398Z" fill="#2F2E41"/>
<path d="M379.413 67.9201L379.427 50.4082L367.092 51.3281L370.729 62.3728L359.556 82.3633C358.731 82.5484 357.977 82.9694 357.387 83.575C356.797 84.1806 356.395 84.9446 356.233 85.7739C356.07 86.6032 356.152 87.462 356.469 88.2455C356.786 89.029 357.325 89.7034 358.019 90.1864C358.713 90.6695 359.533 90.9403 360.379 90.9659C361.225 90.9915 362.06 90.7707 362.782 90.3305C363.504 89.8904 364.083 89.2498 364.447 88.4869C364.811 87.724 364.945 86.8718 364.832 86.0341L379.413 67.9201Z" fill="#FFB6B6"/>
<path d="M375.719 31.7696C380.546 33.8463 381.637 65.2107 380.552 65.0327C377.468 64.5269 371.278 61.594 369.428 62.4628C368.37 62.9597 367.206 53.9625 367.206 53.9625C367.206 53.9625 366.086 48.925 364.772 42.4151C364.366 40.5815 364.432 38.6753 364.962 36.8738C365.493 35.0723 366.471 33.4342 367.806 32.1119C367.806 32.1119 370.891 29.693 375.719 31.7696Z" fill="#2660FF"/>
<path d="M77.597 225.289C77.2774 224.998 77.0256 224.64 76.8594 224.241C76.6932 223.842 76.6166 223.411 76.635 222.979C76.6535 222.547 76.7665 222.125 76.9661 221.741C77.1657 221.358 77.447 221.023 77.7903 220.76L74.4762 210.788L79.755 212.205L82.0929 221.457C82.4972 222.062 82.6652 222.794 82.565 223.515C82.4648 224.236 82.1033 224.895 81.5492 225.367C80.995 225.84 80.2866 226.093 79.5582 226.078C78.8298 226.064 78.132 225.783 77.597 225.289Z" fill="#FFB6B6"/>
<path d="M87.1643 171.112C88.0402 171.614 93.2226 170.371 94.2347 170.724C93.676 174.129 96.7104 172.852 93.4153 177.323C90.1201 181.795 83.4832 195.202 81.9756 200.212C80.4679 205.223 81.9601 212.285 81.7343 214.66C81.6252 216.036 81.632 217.418 81.7546 218.793C79.9743 218.771 78.2195 219.14 76.4113 218.904C74.4831 213.454 73.1865 205.696 72.3062 201.409C71.4258 197.121 71.3936 198.935 71.7974 196.791C72.2012 194.647 72.2989 196.205 71.8748 194.154C71.4506 192.103 73.166 189.526 74.751 188.057C75.4344 186.093 76.3176 184.263 76.9942 182.32C81.9521 178 82.278 175.504 87.1643 171.112Z" fill="#3F3D56"/>
<path d="M133.57 218.968C133.142 219.029 132.705 218.996 132.291 218.87C131.877 218.745 131.496 218.53 131.174 218.241C130.852 217.953 130.597 217.597 130.427 217.199C130.258 216.802 130.178 216.372 130.192 215.94L120.379 212.158L124.829 208.987L133.466 213.065C134.191 213.138 134.864 213.474 135.357 214.009C135.85 214.545 136.13 215.242 136.143 215.97C136.156 216.697 135.901 217.405 135.427 217.957C134.953 218.51 134.292 218.869 133.57 218.968Z" fill="#FFB6B6"/>
<path d="M97.7772 177.156C98.7216 176.799 101.055 172.013 101.971 171.457C104.248 174.052 105.189 170.9 106.551 176.283C107.913 181.666 114.057 195.305 116.971 199.653C119.886 204 126.292 207.338 127.984 209.021C128.978 209.98 130.051 210.853 131.192 211.633C130.043 212.991 129.213 214.579 127.882 215.824C122.444 213.847 115.624 209.916 111.75 207.87C107.877 205.824 109.258 207.001 107.857 205.327C106.457 203.653 107.723 204.568 105.869 203.591C104.014 202.615 103.112 199.654 102.984 197.498C101.901 195.723 101.047 193.878 99.9757 192.122C99.7879 185.553 98.0662 183.715 97.7772 177.156Z" fill="#3F3D56"/>
<path d="M105.161 206.777L110.059 228.607L78.6758 226.657L87.2097 205.218L105.161 206.777Z" fill="#FFB6B6"/>
<path d="M99.9354 307.531L103.46 307.531L105.137 293.949H99.9348L99.9354 307.531Z" fill="#FFB6B6"/>
<path d="M98.7415 305.794L104.314 305.462V307.847L109.612 311.502C109.874 311.682 110.071 311.941 110.175 312.242C110.278 312.542 110.283 312.868 110.189 313.171C110.094 313.474 109.905 313.739 109.649 313.927C109.392 314.116 109.083 314.217 108.765 314.217H102.13L100.987 311.858L100.54 314.217H98.0388L98.7415 305.794Z" fill="#2F2E41"/>
<path d="M66.6173 305.779L70.0622 306.525L74.5839 293.607L69.4994 292.506L66.6173 305.779Z" fill="#FFB6B6"/>
<path d="M65.8192 303.829L71.3356 304.684L70.8295 307.015L75.2314 311.709C75.4488 311.941 75.5864 312.236 75.624 312.551C75.6616 312.867 75.5973 313.186 75.4404 313.462C75.2836 313.738 75.0424 313.957 74.7521 314.087C74.4618 314.217 74.1376 314.251 73.8269 314.183L67.3432 312.778L66.7263 310.231L65.7893 312.442L63.3447 311.912L65.8192 303.829Z" fill="#2F2E41"/>
<path d="M110.86 246.862C108.386 260.443 107.767 266.307 107.767 266.307C107.767 266.307 109.623 268.467 108.386 269.703C107.149 270.939 108.386 273.406 108.386 273.406L105.604 303.347L103.365 302.985L97.9712 302.119L96.0258 301.805L97.2629 273.717C97.2629 273.717 96.0258 271.246 96.6444 270.628C97.2629 270.01 96.0258 266.307 96.0258 266.307L94.4813 236.984L84.8996 269.085C84.8996 269.085 85.8291 270.321 84.8996 271.246C83.9736 272.171 82.1215 276.803 82.1215 276.803L76.4236 296.717L75.9399 298.408L72.9683 297.853L69.7341 297.245L69.1397 297.135L68.0824 296.935L67.4017 296.807L67.1702 296.766L66.0507 296.555L66.3893 295.054L66.5655 294.263L71.3857 272.878L71.4963 272.385L71.6138 271.864C71.6138 271.864 70.9953 270.321 71.9213 269.392C72.1922 269.11 72.3901 268.765 72.4979 268.389C72.6056 268.012 72.62 267.615 72.5398 267.232C72.5095 267.2 72.4818 267.165 72.4569 267.128C72.3475 266.978 72.2721 266.806 72.2358 266.624C72.1928 266.334 72.2271 266.038 72.335 265.766C72.443 265.493 72.6209 265.254 72.8508 265.071C73.0269 264.884 73.1748 264.673 73.2896 264.443C74.2295 262.666 74.7029 258.9 74.7029 258.9C74.7029 258.9 75.5391 229.077 78.2757 224.521C78.4208 224.283 81.326 219.711 81.478 219.617C84.5671 217.768 108.634 220.323 108.634 220.323C108.634 220.323 110.092 224.234 110.157 224.642C110.513 226.93 112.957 235.341 110.86 246.862Z" fill="#2F2E41"/>
<path d="M103.547 175.024C103.547 175.024 104.068 172.324 99.0636 167.326C96.4144 166.444 91.8243 166.958 90.233 167.326C82.8742 177.029 84.1918 175.317 82.2763 180.738C81.7705 181.957 81.5898 183.287 81.752 184.597C82.635 189.007 84.0686 211.646 83.7743 212.822C83.4799 213.998 81.4195 215.468 83.4799 215.468C85.5404 215.468 112.112 215.003 111.523 214.121C110.934 213.239 103.547 175.024 103.547 175.024Z" fill="#3F3D56"/>
<path d="M95.2472 165.631C99.9084 165.631 103.687 161.857 103.687 157.201C103.687 152.545 99.9084 148.771 95.2472 148.771C90.586 148.771 86.8074 152.545 86.8074 157.201C86.8074 161.857 90.586 165.631 95.2472 165.631Z" fill="#FFB6B6"/>
<path d="M88.0968 160.388C88.0507 161.41 87.4091 162.292 86.914 163.187C86.0503 164.784 85.5894 166.568 85.5713 168.383C85.5532 170.198 85.9785 171.991 86.8102 173.605C87.4991 174.91 88.4529 176.075 88.9995 177.446C89.2626 178.025 89.3959 178.654 89.39 179.29C89.3841 179.925 89.2391 180.552 88.9653 181.126C87.486 179.704 86.7641 180.455 85.0842 179.214C85.7449 181.063 85.1817 181.124 85.8449 182.971C82.9938 183.784 80.1416 184.599 77.2884 185.417C79.0401 183.997 80.2772 182.042 80.8101 179.852C81.343 177.662 81.1422 175.358 80.2386 173.293C79.1956 171.059 77.3313 169.218 76.6526 166.844C76.2832 165.56 76.2899 164.196 76.6718 162.915C77.0538 161.634 77.795 160.489 78.8079 159.616C79.8208 158.742 81.063 158.177 82.3875 157.986C83.712 157.796 85.0633 157.988 86.2818 158.541C87.241 158.267 88.1432 159.382 88.0968 160.388Z" fill="#2F2E41"/>
<path d="M98.6976 147.751C97.5627 145.274 94.568 145.778 91.8603 146.105C90.5082 146.313 89.2274 146.848 88.1287 147.662C87.0301 148.477 86.1467 149.546 85.5553 150.779C84.398 153.276 84.1767 156.105 84.9318 158.752C85.3368 160.554 86.3035 162.182 87.693 163.401C89.123 164.55 95.8453 167.267 96.4049 164.927C95.7053 167.979 93.8852 169.717 95.9684 172.056C97.0474 168.818 101.61 165.743 102.689 162.506C102.852 162.018 102.185 156.29 102.347 155.803C102.69 154.776 103.032 153.747 103.28 152.693C103.59 151.368 103.71 149.85 102.887 148.767C102.063 147.684 99.9886 147.641 99.5724 148.937" fill="#2F2E41"/>
<path d="M97.3388 158.061L96.978 155.767C97.2232 152.914 96.823 148.376 98.6976 147.752L99.844 148.897C99.1188 149.139 97.7396 153.405 97.3388 158.061Z" fill="#FF6584"/>
<path d="M179.554 314.329C179.554 314.417 179.537 314.505 179.503 314.586C179.469 314.668 179.42 314.742 179.357 314.804C179.295 314.867 179.221 314.916 179.139 314.95C179.057 314.984 178.97 315.001 178.881 315H20.5149C20.3366 315 20.1656 314.93 20.0395 314.804C19.9134 314.678 19.8425 314.507 19.8425 314.329C19.8425 314.151 19.9134 313.98 20.0395 313.854C20.1656 313.728 20.3366 313.657 20.5149 313.657H178.881C178.97 313.657 179.057 313.674 179.139 313.708C179.221 313.741 179.295 313.791 179.357 313.853C179.42 313.916 179.469 313.99 179.503 314.072C179.537 314.153 179.554 314.241 179.554 314.329Z" fill="#CCCCCC"/>
<path d="M262.456 272.59H146.064C143.667 272.59 141.367 273.541 139.672 275.235C137.977 276.928 137.024 279.225 137.024 281.62C137.024 284.015 137.977 286.311 139.672 288.005C141.367 289.698 143.667 290.649 146.064 290.649H262.456C264.854 290.649 267.153 289.698 268.848 288.005C270.544 286.311 271.496 284.015 271.496 281.62C271.496 279.225 270.544 276.928 268.848 275.235C267.153 273.541 264.854 272.59 262.456 272.59Z" fill="#E6E6E6"/>
</g>
<defs>
<clipPath id="clip0_565_1923">
<rect width="408" height="315" fill="white"/>
</clipPath>
</defs>
</svg>
