<svg width="450" height="316" viewBox="0 0 450 316" fill="none" xmlns="http://www.w3.org/2000/svg">
<g clip-path="url(#clip0_565_2005)">
<path d="M331.339 0.197266H0.141357V222.952H331.339V0.197266Z" fill="#E6E6E6"/>
<path d="M321.868 28.1357H9.61194V113.052H321.868V28.1357Z" fill="white"/>
<path d="M153.318 40.4014H87.2827V44.3822H153.318V40.4014Z" fill="#E6E6E6"/>
<path d="M189.256 54.9229H87.2827V58.9037H189.256V54.9229Z" fill="#2660FF"/>
<path d="M170.388 68.6035H87.2827V72.5843H170.388V68.6035Z" fill="#E6E6E6"/>
<path d="M135.798 82.2324H87.2827V86.2133H135.798V82.2324Z" fill="#E6E6E6"/>
<path d="M160.505 95.8623H87.2827V99.8431H160.505V95.8623Z" fill="#E6E6E6"/>
<path d="M65.271 38.9863H57.1851V47.4779H65.271V38.9863Z" fill="#E6E6E6"/>
<path d="M65.271 52.667H57.1851V61.1586H65.271V52.667Z" fill="#2660FF"/>
<path d="M65.271 66.3486H57.1851V74.8402H65.271V66.3486Z" fill="#E6E6E6"/>
<path d="M65.271 80.0293H57.1851V88.5209H65.271V80.0293Z" fill="#E6E6E6"/>
<path d="M65.271 93.71H57.1851V102.202H65.271V93.71Z" fill="#E6E6E6"/>
<path d="M278.201 58.3281H251.248V86.6334H278.201V58.3281Z" fill="#E6E6E6"/>
<path d="M321.868 124.846H9.61194V209.762H321.868V124.846Z" fill="white"/>
<path d="M79.1968 132.393H71.1108V140.884H79.1968V132.393Z" fill="#E6E6E6"/>
<path d="M65.271 132.393H57.1851V140.884H65.271V132.393Z" fill="#2660FF"/>
<path d="M194.283 150.962C191.819 146.58 188.399 142.876 184.306 140.152C180.212 137.429 175.562 135.765 170.736 135.296C165.911 134.828 161.049 135.57 156.549 137.459C152.05 139.349 148.042 142.334 144.855 146.167L142.884 144.359C146.343 140.197 150.693 136.957 155.577 134.905C160.461 132.853 165.739 132.048 170.977 132.556C176.214 133.064 181.263 134.871 185.706 137.827C190.149 140.784 193.861 144.806 196.535 149.562L194.283 150.962Z" fill="#E6E6E6"/>
<path d="M195.517 186.762L193.345 185.229C196.561 180.191 198.356 174.301 198.522 168.238C198.688 162.175 197.219 156.186 194.283 150.962L196.535 149.562C199.723 155.233 201.318 161.735 201.138 168.317C200.958 174.899 199.009 181.293 195.517 186.762Z" fill="#2660FF"/>
<path d="M143.157 190.59C137.748 184.246 134.734 176.044 134.684 167.529C134.634 159.013 137.55 150.772 142.884 144.358L144.855 146.167C139.941 152.076 137.255 159.667 137.301 167.512C137.347 175.356 140.123 182.912 145.106 188.757L143.157 190.59Z" fill="#2660FF"/>
<path d="M167.918 202.215C163.245 202.211 158.625 201.174 154.359 199.171C150.093 197.169 146.276 194.245 143.157 190.591L145.106 188.757C148.217 192.408 152.082 195.263 156.405 197.106C160.727 198.948 165.394 199.729 170.048 199.389C174.702 199.048 179.22 197.596 183.258 195.141C187.295 192.687 190.745 189.297 193.345 185.229L195.517 186.762C192.478 191.52 188.371 195.419 183.558 198.114C178.744 200.809 173.373 202.217 167.918 202.215Z" fill="#2660FF"/>
<path d="M278.201 150.792H251.248V179.097H278.201V150.792Z" fill="#E6E6E6"/>
<path d="M83.0152 169.19H56.062V197.496H83.0152V169.19Z" fill="#E6E6E6"/>
<path d="M331.197 0H0V14.7763H331.197V0Z" fill="#2660FF"/>
<path d="M10.456 10.2928C11.8963 10.2928 13.0639 9.06664 13.0639 7.55411C13.0639 6.04158 11.8963 4.81543 10.456 4.81543C9.01572 4.81543 7.84814 6.04158 7.84814 7.55411C7.84814 9.06664 9.01572 10.2928 10.456 10.2928Z" fill="white"/>
<path d="M20.3548 10.2928C21.7951 10.2928 22.9627 9.06664 22.9627 7.55411C22.9627 6.04158 21.7951 4.81543 20.3548 4.81543C18.9145 4.81543 17.7469 6.04158 17.7469 7.55411C17.7469 9.06664 18.9145 10.2928 20.3548 10.2928Z" fill="white"/>
<path d="M30.2536 10.2928C31.6939 10.2928 32.8615 9.06664 32.8615 7.55411C32.8615 6.04158 31.6939 4.81543 30.2536 4.81543C28.8133 4.81543 27.6458 6.04158 27.6458 7.55411C27.6458 9.06664 28.8133 10.2928 30.2536 10.2928Z" fill="white"/>
<path d="M384.669 308.328H391.374L394.564 281.168L384.668 281.168L384.669 308.328Z" fill="#FFB8B8"/>
<path d="M382.959 306.029L396.163 306.028H396.164C398.396 306.028 400.536 306.96 402.114 308.617C403.692 310.274 404.579 312.522 404.579 314.865V315.152L382.959 315.153L382.959 306.029Z" fill="#2F2E41"/>
<path d="M367.97 281.663L372.918 286.415L392.726 268.634L385.424 261.621L367.97 281.663Z" fill="#FFB8B8"/>
<path d="M368.186 278.755L377.93 288.113L377.93 288.114C379.577 289.695 380.558 291.899 380.658 294.241C380.757 296.582 379.967 298.869 378.461 300.599L378.276 300.81L362.322 285.488L368.186 278.755Z" fill="#2F2E41"/>
<path d="M395.208 212.952L393.307 252.865L398.058 296.272L383.805 298.267L374.779 243.386L371.928 205.967L395.208 212.952Z" fill="#2F2E41"/>
<path d="M417.537 198.483C417.537 198.483 423.238 237.898 411.361 250.87C399.483 263.841 383.331 286.792 383.331 286.792L371.928 271.824L400.909 239.394L395.208 217.442L371.928 205.967L375.729 178.526L409.935 178.027L417.537 198.483Z" fill="#2F2E41"/>
<path d="M391.376 107.181C397.802 107.181 403.011 101.711 403.011 94.9622C403.011 88.2138 397.802 82.7432 391.376 82.7432C384.95 82.7432 379.741 88.2138 379.741 94.9622C379.741 101.711 384.95 107.181 391.376 107.181Z" fill="#FFB8B8"/>
<path d="M401.027 112.328L402.809 115.164L407.56 129.134L403.759 183.515L381.43 184.015L378.58 121.65L384.551 113.811L401.027 112.328Z" fill="#CCCCCC"/>
<path d="M369.553 123.146L365.752 122.647C365.752 122.647 364.802 123.146 364.327 126.639C363.852 130.131 358.151 161.064 358.151 161.064L365.752 198.982L374.304 187.008L369.078 166.053L374.304 145.099L369.553 123.146Z" fill="#2F2E41"/>
<path d="M418.012 122.647H420.862L427.989 163.06L421.338 194.492L414.686 183.016L416.586 170.543L415.637 159.567L412.311 153.081L418.012 122.647Z" fill="#2F2E41"/>
<path d="M398.252 94.9615L396.136 94.406C396.136 94.406 394.549 84.9641 390.847 86.0749C387.145 87.1857 377.625 88.2965 377.625 83.8532C377.625 79.4099 386.616 75.5221 391.905 76.0775C397.194 76.6329 403.948 78.4754 405.656 86.6303C408.393 99.7028 400.008 103.005 400.008 103.005L400.148 102.529C400.535 101.207 400.563 99.7982 400.228 98.461C399.893 97.1237 399.208 95.9116 398.252 94.9615Z" fill="#2F2E41"/>
<path d="M366.228 122.648L381.43 116.162L384.993 113.418L395.683 163.06L402.809 140.609L400.671 111.921L420.387 122.648L413.736 156.574L412.786 169.546L415.637 180.023C415.637 180.023 425.613 187.507 422.288 195.49C418.962 203.473 415.161 203.971 415.161 203.971C415.161 203.971 399.008 188.006 398.058 184.015C397.108 180.023 395.683 173.038 395.683 173.038C395.683 173.038 387.606 204.969 378.105 204.47C368.603 203.971 368.603 193.494 368.603 193.494L370.978 182.518L374.779 171.043L372.879 152.084L366.228 122.648Z" fill="#2F2E41"/>
<path d="M449.529 316H323.372C323.247 316 323.128 315.948 323.039 315.856C322.951 315.763 322.902 315.637 322.902 315.506C322.902 315.375 322.951 315.249 323.039 315.157C323.128 315.064 323.247 315.012 323.372 315.012H449.529C449.654 315.012 449.774 315.064 449.862 315.157C449.95 315.249 450 315.375 450 315.506C450 315.637 449.95 315.763 449.862 315.856C449.774 315.948 449.654 316 449.529 316Z" fill="#CCCCCC"/>
</g>
<defs>
<clipPath id="clip0_565_2005">
<rect width="450" height="316" fill="white"/>
</clipPath>
</defs>
</svg>
